<?xml version="1.0" encoding="iso-8859-1"?>
<!-- Generator: Adobe Illustrator 19.0.0, SVG Export Plug-In . SVG Version: 6.00 Build 0)  -->
<svg version="1.1" id="Capa_1" xmlns="http://www.w3.org/2000/svg" xmlns:xlink="http://www.w3.org/1999/xlink" x="0px" y="0px"
	 viewBox="0 0 511.998 511.998" style="enable-background:new 0 0 511.998 511.998;" xml:space="preserve">
<polyline style="fill:#B0DBD0;" points="304.489,123.475 211.257,361.525 299.568,370.422 384.077,154.645 "/>
<polygon style="fill:#A84926;" points="76.352,501.998 76.352,460.538 124.336,419.274 208.724,419.274 246.545,452.284 
	246.545,501.998 "/>
<polygon style="fill:#898890;" points="397.826,427.526 316.825,397.206 246.545,452.284 246.545,501.998 435.646,501.998 "/>
<polygon style="fill:#C6C5CA;" points="246.55,452.28 316.825,397.206 328.194,401.462 312.843,371.76 203.578,360.751 
	161.448,390.866 151.994,419.27 208.725,419.27 246.546,452.28 "/>
<path style="fill:#FFC477;" d="M372.188,67.809c-9.891-3.874-16.561-12.429-18.467-22.134l-19.057,48.659
	c6.699,4.981,14.16,9.162,22.299,12.349c8.139,3.188,16.454,5.185,24.755,6.079l19.057-48.659
	C392.786,69.933,382.08,71.683,372.188,67.809z"/>
<path style="fill:#898890;" d="M285.325,104.213c14.484,17.78,33.616,32.181,56.493,41.142c22.876,8.96,46.701,11.381,69.407,8.167
	l-7.999-40.88c-15.2,1.805-31.041,0.003-46.263-5.959c-15.221-5.961-28.073-15.397-38.005-27.044L285.325,104.213z"/>
<circle style="fill:#FF9929;" cx="383.104" cy="39.936" r="29.935"/>
<path d="M327.211,192.654c-0.65,0-1.311-0.06-1.96-0.19c-0.63-0.13-1.26-0.32-1.87-0.57c-0.6-0.25-1.18-0.56-1.72-0.92
	c-0.551-0.37-1.061-0.78-1.521-1.25c-0.46-0.46-0.88-0.97-1.25-1.52c-0.359-0.54-0.67-1.12-0.92-1.72
	c-0.25-0.61-0.439-1.24-0.57-1.87c-0.13-0.65-0.189-1.31-0.189-1.96c0-0.65,0.06-1.31,0.189-1.95c0.131-0.64,0.32-1.27,0.57-1.87
	s0.561-1.19,0.92-1.73c0.37-0.55,0.79-1.06,1.25-1.52s0.97-0.88,1.521-1.24c0.54-0.36,1.12-0.67,1.72-0.92
	c0.61-0.25,1.24-0.44,1.87-0.57c1.29-0.26,2.62-0.26,3.91,0c0.64,0.13,1.27,0.32,1.87,0.57c0.609,0.25,1.189,0.56,1.729,0.92
	c0.55,0.36,1.06,0.78,1.521,1.24c0.46,0.46,0.88,0.97,1.239,1.52c0.36,0.54,0.67,1.13,0.92,1.73s0.44,1.23,0.57,1.87
	c0.13,0.64,0.2,1.3,0.2,1.95c0,0.65-0.07,1.31-0.2,1.96c-0.13,0.63-0.32,1.26-0.57,1.87c-0.25,0.6-0.56,1.18-0.92,1.72
	c-0.359,0.55-0.779,1.06-1.239,1.52c-0.461,0.47-0.971,0.88-1.521,1.25c-0.54,0.36-1.12,0.67-1.729,0.92
	c-0.601,0.25-1.23,0.44-1.87,0.57C328.52,192.594,327.86,192.654,327.211,192.654z"/>
<path d="M444.562,497.471l-37.82-74.472c-1.134-2.233-3.064-3.959-5.41-4.837l-66.024-24.713l-13.581-26.278
	c-1.553-3.003-4.518-5.02-7.882-5.358l-0.157-0.016l77.131-196.939c0.44,0.004,0.88,0.007,1.32,0.007
	c6.845,0,13.694-0.478,20.488-1.439c2.717-0.385,5.155-1.868,6.746-4.104c1.591-2.235,2.193-5.026,1.666-7.718l-7.998-40.88
	c-1.004-5.135-5.79-8.627-10.993-8.01c-1.942,0.23-3.891,0.393-5.844,0.488l12.893-32.918c4.923-4.205,8.767-9.583,11.194-15.782
	c3.89-9.933,3.68-20.785-0.594-30.56c-4.272-9.774-12.096-17.299-22.028-21.189c-20.504-8.03-43.719,2.119-51.749,22.622
	c-2.428,6.199-3.258,12.757-2.501,19.187L330.528,77.48c-1.368-1.396-2.689-2.839-3.957-4.327
	c-3.394-3.982-9.284-4.674-13.509-1.586l-33.634,24.574c-2.215,1.618-3.668,4.076-4.019,6.797s0.433,5.466,2.165,7.593
	c4.613,5.663,9.643,10.964,15.034,15.863l-87.895,224.42l-0.131-0.013c-2.419-0.245-4.841,0.402-6.818,1.814l-42.13,30.114
	c-1.719,1.229-3.005,2.972-3.673,4.977l-7.178,21.565h-20.445c-2.393,0-4.706,0.858-6.52,2.418l-47.985,41.264
	c-2.209,1.899-3.48,4.668-3.48,7.582v41.462c0,5.523,4.477,10,10,10h359.294c3.477,0,6.704-1.806,8.522-4.77
	C445.988,504.266,446.136,500.571,444.562,497.471z M360.61,97.372c-4.774-1.87-9.366-4.165-13.716-6.841l8.53-21.78
	c3.728,3.581,8.16,6.428,13.118,8.37c4.722,1.849,9.651,2.771,14.574,2.771c0.246,0,0.492-0.003,0.739-0.008l-8.53,21.78
	C370.314,100.676,365.384,99.242,360.61,97.372z M364.543,32.666c4.008-10.235,15.594-15.302,25.832-11.292
	c4.958,1.942,8.863,5.698,10.996,10.578c2.133,4.879,2.238,10.296,0.296,15.255c-1.373,3.508-3.655,6.488-6.6,8.687
	c-0.129,0.089-0.255,0.181-0.38,0.277c-1.113,0.791-2.316,1.473-3.597,2.033c-4.882,2.133-10.297,2.238-15.256,0.296
	c-4.958-1.941-8.863-5.698-10.996-10.577c-0.56-1.28-0.979-2.598-1.26-3.934c-0.027-0.156-0.058-0.312-0.092-0.467
	C362.82,39.907,363.169,36.171,364.543,32.666z M317.706,92.94c3.287,3.224,6.785,6.231,10.465,9.001
	c0.338,0.289,0.698,0.557,1.078,0.801c7.393,5.421,15.493,9.894,24.068,13.252c8.573,3.358,17.551,5.574,26.658,6.616
	c0.453,0.081,0.907,0.129,1.358,0.146c4.576,0.464,9.18,0.632,13.78,0.499l4.188,21.403c-18.258,1.031-36.671-1.895-53.837-8.617
	c-17.167-6.724-32.675-17.083-45.371-30.237L317.706,92.94z M309.025,139.314c9.077,6.158,18.854,11.321,29.145,15.352
	c10.292,4.031,20.974,6.881,31.819,8.524l-76.967,196.522l-23.491-2.367l53.836-137.461c2.014-5.143-0.522-10.944-5.665-12.958
	c-5.141-2.013-10.943,0.522-12.958,5.665l-55.571,141.891c-0.102,0.26-0.192,0.522-0.27,0.785l-23.527-2.37L309.025,139.314z
	 M169.91,397.111l36.417-26.031l100.122,10.087h-0.001c0.001,0,0,0,0.001,0h-0.001l4.218,8.161l-0.009,0.007l-63.766,49.973
	l-31.589-27.571c-1.822-1.59-4.158-2.466-6.576-2.466h-42.863L169.91,397.111z M86.352,465.127l41.693-35.853h76.928l31.57,27.555
	v35.168H86.352V465.127z M256.545,491.998v-34.845l62.031-48.614l6.112,2.288c0.006,0.002,0.012,0.004,0.018,0.007l65.968,24.692
	l28.678,56.472L256.545,491.998L256.545,491.998z"/>
<g>
</g>
<g>
</g>
<g>
</g>
<g>
</g>
<g>
</g>
<g>
</g>
<g>
</g>
<g>
</g>
<g>
</g>
<g>
</g>
<g>
</g>
<g>
</g>
<g>
</g>
<g>
</g>
<g>
</g>
</svg>
