<?xml version="1.0" encoding="iso-8859-1"?>
<!-- Generator: Adobe Illustrator 21.0.0, SVG Export Plug-In . SVG Version: 6.00 Build 0)  -->
<svg xmlns="http://www.w3.org/2000/svg" xmlns:xlink="http://www.w3.org/1999/xlink" version="1.1" id="Capa_1" x="0px" y="0px" viewBox="0 0 512 512" style="enable-background:new 0 0 512 512;" xml:space="preserve" width="512" height="512">
<g>
	<path style="fill:#FFC6A9;" d="M459,131.5c-8.284,0-15,6.716-15,15v36h-58.373c-8.284,0-15,6.716-15,15s6.716,15,15,15H459   c8.284,0,15-6.716,15-15v-51C474,138.216,467.284,131.5,459,131.5z"/>
	<path style="fill:#837A91;" d="M489.5,242.5h-467c-8.284,0-15-6.716-15-15v0c0-8.284,6.716-15,15-15h467c8.284,0,15,6.716,15,15v0   C504.5,235.784,497.784,242.5,489.5,242.5z"/>
	<path style="fill:#6B6477;" d="M53,380.5L53,380.5c-8.284,0-15-6.716-15-15v-123h30v123C68,373.784,61.284,380.5,53,380.5z"/>
	<path style="fill:#6B6477;" d="M459,380.5L459,380.5c-8.284,0-15-6.716-15-15v-123h30v123C474,373.784,467.284,380.5,459,380.5z"/>
	<path style="fill:#DBD3D0;" d="M414.03,314.5H48c-5.523,0-10-4.477-10-10v-142c0-16.569,13.431-30,30-30h326.03   c16.569,0,30,13.431,30,30v142C424.03,310.023,419.553,314.5,414.03,314.5z"/>
	<path style="fill:#D1C4C4;" d="M394.03,132.5h-30c16.569,0,30,13.432,30,30v142c0,5.523-4.477,10-10,10h30c5.523,0,10-4.477,10-10   v-142C424.03,145.932,410.599,132.5,394.03,132.5z"/>
	<g>
		<path d="M489.5,205h-9.285c0.832-2.347,1.285-4.872,1.285-7.5v-51c0-12.406-10.094-22.5-22.5-22.5s-22.5,10.094-22.5,22.5V175    h-4.97v-12.5c0-20.678-16.822-37.5-37.5-37.5H128c-4.143,0-7.5,3.357-7.5,7.5s3.357,7.5,7.5,7.5h266.03    c12.406,0,22.5,10.094,22.5,22.5v142c0,1.379-1.121,2.5-2.5,2.5H287.75c-4.143,0-7.5,3.357-7.5,7.5s3.357,7.5,7.5,7.5h126.28    c9.649,0,17.5-7.851,17.5-17.5V250h4.97v115.5c0,12.406,10.094,22.5,22.5,22.5s22.5-10.094,22.5-22.5v-46    c0-4.143-3.357-7.5-7.5-7.5s-7.5,3.357-7.5,7.5v46c0,4.136-3.364,7.5-7.5,7.5s-7.5-3.364-7.5-7.5V250h15v37.5    c0,4.143,3.357,7.5,7.5,7.5s7.5-3.357,7.5-7.5V250h8c12.478,0,22.5-10.122,22.5-22.5C512,215.094,501.906,205,489.5,205z M444,190    c4.143,0,7.5-3.357,7.5-7.5v-36c0-4.136,3.364-7.5,7.5-7.5s7.5,3.364,7.5,7.5v51c0,4.136-3.364,7.5-7.5,7.5h-27.47v-15H444z     M489.5,235h-57.97v-15h57.97c4.136,0,7.5,3.364,7.5,7.5C497,231.582,493.68,235,489.5,235z"/>
		<path d="M256.25,307H48c-1.379,0-2.5-1.121-2.5-2.5v-142c0-12.406,10.094-22.5,22.5-22.5h28c4.143,0,7.5-3.357,7.5-7.5    s-3.357-7.5-7.5-7.5H68c-20.678,0-37.5,16.822-37.5,37.5V205h-8C10.022,205,0,215.122,0,227.5C0,239.906,10.094,250,22.5,250h8    v115.5c0,12.406,10.094,22.5,22.5,22.5s22.5-10.094,22.5-22.5V322h180.75c4.143,0,7.5-3.357,7.5-7.5S260.393,307,256.25,307z     M15,227.5c0-4.082,3.32-7.5,7.5-7.5h8v15h-8C18.364,235,15,231.636,15,227.5z M60.5,365.5c0,4.136-3.364,7.5-7.5,7.5    s-7.5-3.364-7.5-7.5v-43.678C46.317,321.939,47.151,322,48,322h12.5V365.5z"/>
	</g>
</g>















</svg>
