<svg height="511pt" viewBox="-4 1 511 511.99956" width="511pt" xmlns="http://www.w3.org/2000/svg"><g fill="#f44545"><path d="m360.652344 447.429688c-24.214844 35.699218-63.789063 57.78125-111.054688 56.914062-99.921875-2.257812-159.867187-112.320312-109.292968-198.53125l97.101562-165.511719c4.691406-8.007812 14.042969-10.597656 21.746094-7.773437 3.703125 1.34375 7.019531 3.929687 9.273437 7.773437l97.101563 165.511719c27.734375 47.265625 22.230468 101.710938-4.875 141.617188zm0 0"/><path d="m489.65625 157.660156c-11.09375 25.507813-35.699219 43.105469-66.894531 42.332032-53.421875-1.667969-85.128907-60.640626-58.082031-106.746094l45.039062-76.78125c4.691406-7.996094 14.046875-10.59375 21.75-7.765625 3.699219 1.335937 7.027344 3.925781 9.269531 7.765625l45.042969 76.78125c12.324219 21.007812 12.445312 44.699218 3.875 64.414062zm0 0"/><path d="m128.785156 233.46875c-8.707031 23.417969-30.550781 40.757812-58.355468 40.757812-48.871094 0-77.851563-53.265624-53.628907-94.554687l39.886719-67.996094c4.488281-7.652343 13.761719-9.726562 20.839844-6.214843 2.636718 1.292968 4.964844 3.375 6.632812 6.214843l39.886719 67.996094c10.25 17.46875 10.96875 37.023437 4.738281 53.796875zm0 0"/></g><path d="m360.652344 447.429688c-18.589844 11.476562-40.601563 18.441406-64.988282 18.996093-103.214843 2.84375-167.851562-110.015625-115.929687-198.53125l79.417969-135.367187c3.703125 1.34375 7.019531 3.929687 9.273437 7.773437l97.101563 165.511719c27.734375 47.265625 22.230468 101.710938-4.875 141.617188zm0 0" fill="#fb5858"/><path d="m489.65625 157.660156c-6.9375 2.617188-14.488281 4.164063-22.539062 4.417969-.808594.019531-1.636719.042969-2.457032.042969-.828125 0-1.648437-.023438-2.464844-.042969-53.425781-1.667969-85.140624-60.644531-58.085937-106.738281l27.359375-46.640625c3.699219 1.335937 7.027344 3.925781 9.269531 7.765625l45.042969 76.78125c12.324219 21.007812 12.445312 44.699218 3.875 64.414062zm0 0" fill="#fb5858"/><path d="m128.785156 233.46875c-5.234375 1.648438-10.847656 2.628906-16.75 2.8125-.71875.019531-1.449218.03125-2.183594.03125-.730468 0-1.457031-.011719-2.175781-.03125-47.308593-1.476562-75.394531-53.699219-51.441406-94.523438l21.292969-36.296874c2.636718 1.292968 4.964844 3.375 6.632812 6.214843l39.886719 67.996094c10.25 17.46875 10.96875 37.023437 4.738281 53.796875zm0 0" fill="#fb5858"/><path d="m274.96875 136.464844c-9.878906-16.832032-34.21875-16.855469-44.105469 0l-22.980469 39.171875c-2.117187 3.613281-.910156 8.257812 2.703126 10.378906 3.613281 2.117187 8.257812.90625 10.378906-2.703125l22.980468-39.171875c4.03125-6.875 13.910157-6.871094 17.941407 0l97.097656 165.507813c46.761719 79.714843-6.625 184.941406-102.925781 187.113281-100.6875 2.234375-156.824219-105.957031-109.210938-187.113281l58.765625-100.175782c2.121094-3.613281.910157-8.257812-2.703125-10.378906-3.609375-2.117188-8.257812-.90625-10.375 2.707031l-58.769531 100.175781c-32.605469 55.570313-22.210937 122.566407 18.308594 166.300782 54.136719 58.441406 147.808593 58.152344 201.679687 0 39.996094-43.175782 51.28125-110.101563 18.308594-166.300782zm0 0"/><path d="m498.980469 103.847656c-1.363281-3.960937-5.675781-6.066406-9.640625-4.703125-3.957032 1.363281-6.0625 5.679688-4.699219 9.640625 13.414063 38.953125-14.402344 85.121094-61.636719 83.625-48.339844-1.503906-75.644531-54.660156-51.789062-95.324218l45.042968-76.777344c4.03125-6.875 13.914063-6.875 17.945313 0l36.988281 63.046875c2.117188 3.613281 6.761719 4.824219 10.375 2.703125 3.613282-2.117188 4.824219-6.761719 2.703125-10.375l-36.988281-63.050782c-9.871094-16.832031-34.214844-16.855468-44.101562 0l-45.046876 76.777344c-17.929687 30.566406-13.113281 68.113282 10.050782 93.347656 30.601562 33.347657 83.753906 33.054688 114.09375 0 19.707031-21.464843 26.046875-51.78125 16.703125-78.910156zm0 0"/><path d="m121.582031 259.519531c20.777344-22.636719 25.074219-56.304687 9.007813-83.6875l-39.886719-67.996093c-9.082031-15.476563-31.460937-15.496094-40.554687 0l-14.601563 24.894531c-2.121094 3.613281-.910156 8.257812 2.703125 10.375 3.609375 2.121093 8.257812.910156 10.378906-2.703125l14.601563-24.890625c3.226562-5.5 11.167969-5.492188 14.390625 0l39.890625 67.992187c21.273437 36.265625-4.082031 84.488282-49.03125 83.109375-42.152344-1.3125-65.925781-47.667969-45.140625-83.109375l9.941406-16.9375c2.117188-3.613281.90625-8.257812-2.707031-10.378906-3.609375-2.117188-8.257813-.90625-10.375 2.707031-10.433594 17.78125-19.699219 30.367188-19.699219 52.535157 0 17.824218 6.664062 34.902343 18.769531 48.089843 27.332031 29.78125 75.082031 29.667969 102.3125 0zm0 0"/></svg>