<?xml version="1.0" encoding="iso-8859-1"?>
<!-- Generator: Adobe Illustrator 19.0.0, SVG Export Plug-In . SVG Version: 6.00 Build 0)  -->
<svg version="1.1" id="Capa_1" xmlns="http://www.w3.org/2000/svg" xmlns:xlink="http://www.w3.org/1999/xlink" x="0px" y="0px"
	 viewBox="0 0 512 512" style="enable-background:new 0 0 512 512;" xml:space="preserve">
<rect x="216.18" y="185.99" style="fill:#A84926;" width="79.64" height="49.26"/>
<rect x="132.69" y="235.25" style="fill:#C6C5CA;" width="246.63" height="266.75"/>
<rect x="20.548" y="285.93" style="fill:#ACABB1;" width="112.14" height="216.07"/>
<g>
	<polygon style="fill:#2C7B7E;" points="76.617,199.139 20.548,285.933 132.686,285.933 	"/>
	<polygon style="fill:#2C7B7E;" points="435.383,199.139 379.314,285.933 491.452,285.933 	"/>
</g>
<rect x="379.31" y="285.93" style="fill:#ACABB1;" width="112.14" height="216.07"/>
<path d="M345.8,280.8c-0.65,0-1.3-0.06-1.95-0.19c-0.64-0.13-1.27-0.32-1.87-0.57s-1.18-0.56-1.729-0.92
	c-0.55-0.37-1.061-0.79-1.521-1.25s-0.88-0.97-1.239-1.52c-0.36-0.54-0.671-1.12-0.921-1.72s-0.439-1.23-0.569-1.87
	c-0.13-0.65-0.2-1.3-0.2-1.95c0-0.66,0.07-1.31,0.2-1.96c0.13-0.64,0.319-1.27,0.569-1.87s0.561-1.18,0.921-1.73
	c0.359-0.54,0.779-1.06,1.239-1.52s0.971-0.88,1.521-1.24s1.13-0.67,1.729-0.92c0.601-0.25,1.23-0.44,1.87-0.57
	c1.29-0.26,2.62-0.26,3.91,0c0.64,0.13,1.271,0.32,1.87,0.57s1.18,0.56,1.729,0.92c0.54,0.36,1.051,0.78,1.521,1.24
	c0.46,0.46,0.87,0.98,1.24,1.52c0.359,0.55,0.67,1.13,0.92,1.73s0.439,1.23,0.569,1.87c0.131,0.65,0.19,1.3,0.19,1.96
	c0,0.65-0.06,1.3-0.19,1.95c-0.13,0.64-0.319,1.27-0.569,1.87s-0.561,1.18-0.92,1.72c-0.37,0.55-0.78,1.06-1.24,1.52
	c-0.47,0.46-0.98,0.88-1.521,1.25c-0.55,0.36-1.13,0.67-1.729,0.92s-1.23,0.44-1.87,0.57C347.109,280.74,346.46,280.8,345.8,280.8z"
	/>
<polygon style="fill:#C6C5CA;" points="391.656,114.885 347.84,114.885 347.84,141.039 315.824,141.039 315.824,114.885 
	272.008,114.885 272.008,141.039 239.992,141.039 239.992,114.885 196.176,114.885 196.176,141.039 164.161,141.039 
	164.161,114.885 120.344,114.885 120.344,185.993 391.656,185.993 "/>
<rect x="413.88" y="334.27" style="fill:#F6DAB9;" width="42.999" height="96.51"/>
<path d="M456.883,440.777h-42.999c-5.522,0-10-4.477-10-10V334.27c0-5.523,4.478-10,10-10h42.999c5.522,0,10,4.477,10,10v96.507
	C466.883,436.3,462.405,440.777,456.883,440.777z M423.884,420.777h22.999V344.27h-22.999V420.777z"/>
<rect x="55.12" y="334.27" style="fill:#F6DAB9;" width="42.999" height="96.51"/>
<path d="M98.116,440.777H55.117c-5.522,0-10-4.477-10-10V334.27c0-5.523,4.478-10,10-10h42.999c5.522,0,10,4.477,10,10v96.507
	C108.116,436.3,103.639,440.777,98.116,440.777z M65.117,420.777h22.999V344.27H65.117V420.777z"/>
<path style="fill:#DA5B2C;" d="M255.995,330.775L255.995,330.775c-36.196,0-65.539,29.343-65.539,65.539V502H256V330.775
	C255.998,330.775,255.997,330.775,255.995,330.775z"/>
<path style="fill:#A84926;" d="M321.534,396.314c0-36.195-29.34-65.536-65.534-65.539V502h65.534V396.314z"/>
<g>
	<rect x="132.69" y="185.99" style="fill:#DA5B2C;" width="83.49" height="49.26"/>
	<rect x="295.82" y="185.99" style="fill:#DA5B2C;" width="83.49" height="49.26"/>
</g>
<polygon style="fill:#2C7B7E;" points="368.494,71.611 272.006,71.611 272.006,10 368.494,10 346.646,40.806 "/>
<path d="M501.449,285.691c0-0.016-0.001-0.032-0.001-0.048c-0.002-0.06-0.004-0.12-0.007-0.18c-0.001-0.022-0.002-0.044-0.003-0.066
	c-0.003-0.063-0.007-0.125-0.012-0.188c-0.003-0.041-0.006-0.082-0.01-0.122c-0.002-0.02-0.004-0.04-0.005-0.061
	c-0.152-1.696-0.728-3.27-1.621-4.616l-56.008-86.699c-1.842-2.852-5.005-4.574-8.399-4.574s-6.558,1.722-8.399,4.574
	l-37.669,58.312v-56.031h2.342c5.522,0,10-4.477,10-10v-71.108c0-5.523-4.478-10-10-10H347.84c-5.522,0-10,4.477-10,10v16.154
	h-12.016v-16.154c0-5.523-4.478-10-10-10h-33.818V81.611h86.488c3.74,0,7.167-2.087,8.884-5.409
	c1.717-3.323,1.437-7.325-0.727-10.376l-17.745-25.02l17.745-25.021c2.163-3.051,2.443-7.054,0.727-10.376S372.234,0,368.494,0
	h-96.488c-5.522,0-10,4.477-10,10v121.039h-12.014v-16.154c0-5.523-4.478-10-10-10h-43.816c-5.522,0-10,4.477-10,10v16.154h-12.015
	v-16.154c0-5.523-4.478-10-10-10h-43.817c-5.522,0-10,4.477-10,10v71.108c0,5.523,4.478,10,10,10h2.342v56.031l-37.669-58.312
	c-1.842-2.852-5.005-4.574-8.399-4.574s-6.558,1.722-8.399,4.574L12.21,280.411c-0.893,1.346-1.468,2.92-1.621,4.616
	c-0.002,0.02-0.004,0.04-0.005,0.061c-0.003,0.041-0.007,0.081-0.01,0.122c-0.005,0.063-0.009,0.125-0.012,0.188
	c-0.001,0.022-0.002,0.044-0.003,0.066c-0.003,0.06-0.005,0.12-0.007,0.18c0,0.016-0.001,0.032-0.001,0.048
	c-0.002,0.077-0.003,0.154-0.003,0.231c0,0.003,0,0.007,0,0.01V502c0,5.523,4.478,10,10,10h470.904c5.522,0,10-4.477,10-10V285.933
	c0-0.003,0-0.007,0-0.01C501.452,285.845,501.451,285.768,501.449,285.691z M435.383,217.568l37.704,58.365H397.68L435.383,217.568z
	 M369.314,225.253h-63.492v-29.26h63.492V225.253z M226.178,225.253v-29.26h59.645v29.26H226.178z M282.006,20h67.137L338.49,35.021
	c-2.457,3.465-2.457,8.105,0,11.57l10.653,15.02h-67.137V20z M130.344,124.885h23.817v16.154c0,5.523,4.478,10,10,10h32.015
	c5.522,0,10-4.477,10-10v-16.154h23.816v16.154c0,5.523,4.478,10,10,10h32.016c5.522,0,10-4.477,10-10v-16.154h23.816v16.154
	c0,5.523,4.478,10,10,10h32.016c5.522,0,10-4.477,10-10v-16.154h23.816v51.108H130.344V124.885z M206.178,195.993v29.26h-63.492
	v-29.26H206.178z M76.617,217.568l37.703,58.365H38.913L76.617,217.568z M30.548,295.933h92.138V492H30.548V295.933z
	 M142.686,280.804h163.119c5.522,0,10-4.477,10-10s-4.478-10-10-10H142.686v-15.55h226.629V492h-37.78v-95.687
	c0-41.649-33.884-75.536-75.533-75.539c-0.001,0-0.001,0-0.001,0h-0.006c-41.652,0-75.539,33.887-75.539,75.539V492h-37.77V280.804z
	 M200.455,396.313c0-27.213,19.674-49.918,45.545-54.638V492h-45.545V396.313z M266,492V341.677
	c25.866,4.724,45.534,27.427,45.534,54.636V492H266z M481.452,492h-92.138V295.933h92.138V492z"/>
<g>
</g>
<g>
</g>
<g>
</g>
<g>
</g>
<g>
</g>
<g>
</g>
<g>
</g>
<g>
</g>
<g>
</g>
<g>
</g>
<g>
</g>
<g>
</g>
<g>
</g>
<g>
</g>
<g>
</g>
</svg>
