<?xml version="1.0" encoding="iso-8859-1"?>
<!-- Generator: Adobe Illustrator 19.0.0, SVG Export Plug-In . SVG Version: 6.00 Build 0)  -->
<svg xmlns="http://www.w3.org/2000/svg" xmlns:xlink="http://www.w3.org/1999/xlink" version="1.1" id="Layer_1" x="0px" y="0px" viewBox="0 0 510.935 510.935" style="enable-background:new 0 0 510.935 510.935;" xml:space="preserve" width="512" height="512">
<g>
	<g>
		<polygon style="fill:#FFDE55;" points="347.117,126.263 352.067,131.213 501.974,464.967 465.204,501.737 131.45,351.83     126.5,346.88   "/>
		<path style="fill:#FFD215;" d="M485.71,428.757L485.71,428.757c-18.65,18.65-46.885,23.836-70.945,13.029l-264.41-118.761    L126.5,346.88l4.95,4.95l333.754,149.907l36.77-36.77L485.71,428.757z"/>
		<g>
			<polygon style="fill:#FFA5B5;" points="401.819,241.974 426.419,296.754 228.811,395.565 158.143,363.816    "/>
			<polygon style="fill:#FFA5B5;" points="347.117,126.263 352.067,131.213 372.658,177.047 220.008,253.373    "/>
			<polygon style="fill:#FFA5B5;" points="455.587,361.687 480.188,416.467 383.25,464.925 312.575,433.183    "/>
		</g>
		<circle style="fill:#FFA5B5;" cx="32.5" cy="32.737" r="25"/>
		<path style="fill:#FF8DA3;" d="M32.5,37.737c-10.251,0-19.055-6.172-22.914-15C8.247,25.8,7.5,29.18,7.5,32.737    c0,13.807,11.193,25,25,25s25-11.193,25-25c0-3.557-0.747-6.937-2.086-10C51.555,31.565,42.751,37.737,32.5,37.737z"/>
		<g>
			<polygon style="fill:#FF8DA3;" points="268.11,375.917 228.82,395.567 228.81,395.567 158.14,363.817 197.42,344.177      197.43,344.177    "/>
			<polygon style="fill:#FF8DA3;" points="422.55,445.287 383.25,464.927 312.58,433.187 351.88,413.537    "/>
		</g>
		<polygon style="fill:#FFDE55;" points="249.469,24.568 276.249,33.649 298.912,16.737 298.55,45.012 321.638,61.34     294.635,69.734 286.241,96.737 269.914,73.649 241.638,74.01 258.55,51.348   "/>
	</g>
	<g>
		<path style="fill:#FFFFFF;" d="M219.536,299.543l-6.708-13.416l13.034-6.517l6.708,13.416L219.536,299.543z M245.986,286.317    l-6.708-13.416l13.417-6.708l6.708,13.416L245.986,286.317z M272.819,272.901l-6.708-13.416l78.709-39.356l6.708,13.416    L272.819,272.901z"/>
		<path style="fill:#FFFFFF;" d="M305.527,404.189l-6.709-13.416l59.031-29.518l6.709,13.416L305.527,404.189z M377.975,367.963    l-6.709-13.416l13.416-6.709l6.709,13.416L377.975,367.963z M404.808,354.546l-6.709-13.416l13.416-6.708l6.709,13.416    L404.808,354.546z"/>
		
			<rect x="454.522" y="454.285" transform="matrix(0.7071 0.7071 -0.7071 0.7071 461.8396 -191.4453)" style="fill:#FFFFFF;" width="15" height="15"/>
	</g>
	<g>
		<path d="M358.344,126.883l-11.227-11.227L115.894,346.88l11.227,11.227l339.729,152.59l44.085-44.085L358.344,126.883z     M224.451,259.536l93.424-46.712l-6.708-13.416l-53.176,26.588l88.622-88.622l16.252,36.185L324.583,192.7l6.708,13.416    l37.725-18.863l23.011,51.232l-125.435,62.719l6.708,13.416l124.878-62.441l18.453,41.083l-38.286,19.144l6.709,13.416    l37.728-18.865l23.014,51.239l-78.434,39.211l6.707,13.417l77.878-38.934l18.453,41.083l-87.323,43.652l-53.004-23.807    l30.579-15.287l-6.707-13.417l-41.541,20.768l-66.09-29.685l125.325-62.667l-6.709-13.416l-136.284,68.147l-53.009-23.809    l84.248-42.125l-6.708-13.416l-95.208,47.606l-20.356-9.143L224.451,259.536z M463.559,492.776l-62.812-28.212l75.804-37.894    l16.462,36.652L463.559,492.776z"/>
		<rect x="10.559" y="307.066" transform="matrix(-0.9459 -0.3246 0.3246 -0.9459 -18.3093 626.0779)" width="65" height="14.999"/>
		<rect x="87.581" y="324.917" transform="matrix(-0.9459 -0.3246 0.3246 -0.9459 77.1208 677.6974)" width="15" height="14.999"/>
		<rect x="182.39" y="183.627" transform="matrix(0.7071 0.7071 -0.7071 0.7071 190.7647 -78.2928)" width="15" height="15"/>
		<rect x="161.177" y="162.414" transform="matrix(0.7071 0.7071 -0.7071 0.7071 169.5516 -69.5061)" width="15" height="15"/>
		<rect x="203.584" y="204.887" transform="matrix(0.7071 0.7071 -0.7071 0.7071 212.0245 -87.0989)" width="15.132" height="15"/>
		<rect x="102.134" y="49.87" transform="matrix(-0.7071 0.7071 -0.7071 -0.7071 265.5533 111.7449)" width="15" height="122"/>
		<path d="M65,32.737c0-17.92-14.58-32.5-32.5-32.5S0,14.816,0,32.737s14.58,32.5,32.5,32.5S65,50.657,65,32.737z M15,32.737    c0-9.649,7.851-17.5,17.5-17.5S50,23.087,50,32.737s-7.851,17.5-17.5,17.5S15,42.386,15,32.737z"/>
		<path d="M145.881,78.352c9.284,9.286,21.328,5.701,31.005,2.82c8.186-2.436,13.355-3.716,16.12-0.95    c2.766,2.766,1.486,7.936-0.949,16.122c-2.879,9.677-6.463,21.721,2.821,31.005c9.285,9.285,21.33,5.703,31.006,2.823    c8.186-2.436,13.356-3.714,16.123-0.948c3.639,3.639,3.667,7.979,3.403,15.335c-0.289,8.04-0.648,18.046,7.786,26.48    l10.606-10.606c-3.639-3.639-3.667-7.979-3.402-15.335c0.289-8.04,0.648-18.046-7.787-26.48    c-9.284-9.285-21.329-5.701-31.007-2.823c-8.185,2.437-13.355,3.715-16.123,0.948c-2.766-2.766-1.486-7.936,0.949-16.122    c2.879-9.677,6.463-21.721-2.821-31.005c-9.283-9.284-21.328-5.699-31.004-2.82c-8.187,2.436-13.355,3.715-16.121,0.95    c-3.779-3.779-4.038-8.716-4.146-16.458c-0.116-8.276-0.26-18.576-8.538-26.854L133.197,35.04    c3.779,3.779,4.038,8.716,4.146,16.458C137.459,59.774,137.604,70.074,145.881,78.352z"/>
		<path d="M152.619,225.622c-9.097-9.098-21.037-5.321-30.63-2.284c-7.759,2.456-13.03,3.878-15.499,1.411    c-2.726-2.726-2.364-5.978-0.811-13.297c1.636-7.708,3.877-18.265-4.877-27.018L90.197,195.04    c2.726,2.726,2.364,5.978,0.811,13.297c-1.636,7.708-3.877,18.265,4.877,27.018c9.096,9.097,21.036,5.319,30.63,2.284    c7.759-2.456,13.03-3.879,15.499-1.411c2.468,2.468,1.043,7.738-1.412,15.497c-3.036,9.593-6.814,21.532,2.283,30.628    l10.606-10.606c-2.468-2.468-1.043-7.738,1.412-15.496C157.938,246.658,161.716,234.718,152.619,225.622z"/>
		<polygon points="70.716,168.521 91.5,168.521 91.5,153.521 70.716,153.521 70.716,132.737 55.716,132.737 55.716,153.521     34.932,153.521 34.932,168.521 55.716,168.521 55.716,189.305 70.716,189.305   "/>
		<rect x="319.303" y="85.54" transform="matrix(-0.7071 0.7071 -0.7071 -0.7071 623.6772 -72.2555)" width="15" height="15"/>
		<rect x="183.303" y="25.54" transform="matrix(0.7071 0.7071 -0.7071 0.7071 79.2478 -125.2411)" width="15" height="15"/>
		<rect x="97.697" y="25.54" transform="matrix(0.7071 0.7071 -0.7071 0.7071 54.1743 -64.7082)" width="15" height="15"/>
		<rect x="22.697" y="98.934" transform="matrix(0.7071 -0.7071 0.7071 0.7071 -66.4155 52.526)" width="15" height="15"/>
		<rect x="93.303" y="264.934" transform="matrix(-0.7071 -0.7071 0.7071 -0.7071 -20.5578 536.3519)" width="15" height="15"/>
		<rect x="40.697" y="266.934" transform="matrix(0.7071 0.7071 -0.7071 0.7071 208.1704 46.2995)" width="15" height="15"/>
		<rect x="28.697" y="214.54" transform="matrix(0.7071 0.7071 -0.7071 0.7071 167.6078 39.439)" width="15" height="15"/>
		<path d="M266.067,81.199l22.826,32.276l11.734-37.75l37.75-11.734L306.1,41.166l0.505-39.528L274.923,25.28l-37.437-12.695    l12.695,37.437l-23.643,31.682L266.067,81.199z M261.452,36.551l16.123,5.467l13.644-10.182L291,48.859l13.899,9.83l-16.257,5.053    l-5.053,16.257l-9.83-13.899l-17.022,0.218l10.182-13.644L261.452,36.551z"/>
	</g>
</g>















</svg>
