<svg height="512pt" viewBox="0 -2 512 512" width="512pt" xmlns="http://www.w3.org/2000/svg"><path d="m334.410156 465.882812c6.699219-7.386718 10.777344-17.191406 10.777344-27.949218 0-22.996094-18.640625-41.636719-41.632812-41.636719-18.105469 0-33.503907 11.554687-39.238282 27.691406-3.042968-1.097656-6.324218-1.699219-9.75-1.699219-15.855468 0-28.710937 12.855469-28.710937 28.710938 0 5.449219 1.519531 10.542969 4.15625 14.886719h104.398437zm0 0" fill="#77bc4d"/><path d="m298.515625 357.390625h155.332031v113.828125h-155.332031zm0 0" fill="#f72d2d"/><path d="m335.515625 387.878906h81.332031v83.335938h-81.332031zm0 0" fill="#4d78a0"/><path d="m435.886719 357.390625h17.960937v113.828125h-17.960937zm0 0" fill="#db1212"/><path d="m292.53125 337.28125-2.484375 10.441406c-1.460937 6.132813 3.1875 12.023438 9.496094 12.023438h153.273437c6.308594 0 10.960938-5.890625 9.5-12.023438l-2.488281-10.441406c-5.160156-21.667969-24.519531-36.960938-46.796875-36.960938h-73.703125c-22.273437 0-41.636719 15.292969-46.796875 36.960938zm0 0" fill="#ff5656"/><path d="m452.816406 359.746094h-25c6.3125 0 10.960938-5.890625 9.5-12.027344l-2.488281-10.441406c-5.160156-21.660156-24.519531-36.960938-46.792969-36.960938h25c22.273438 0 41.632813 15.300782 46.792969 36.960938l2.488281 10.441406c1.460938 6.136719-3.1875 12.027344-9.5 12.027344zm0 0" fill="#f72d2d"/><path d="m357.191406 331.21875h37.980469v28.527344h-37.980469zm0 0" fill="#f7e4d7"/><path d="m504.5 501.394531h-497v-9.292969c0-17.171874 13.921875-31.09375 31.09375-31.09375h434.8125c17.171875 0 31.09375 13.921876 31.09375 31.09375zm0 0" fill="#a2d962"/><path d="m125.625 7.5 66.371094 104.042969c2.90625 4.554687 7.5 7.765625 12.777344 8.929687l82.429687 18.183594c27.859375 6.144531 56.789063 5.003906 84.167969-3.011719 22.003906-6.4375 49.859375-8.273437 66.863281 14.265625 10.5625 14 13.746094 63.945313-87.511719 83.34375-122.460937 23.460938-118.765625 29.171875-212.53125 79.175782-93.761718 50.007812-41.671875-102.097657-70.839844-145.851563-18.210937-27.316406-42.917968-65.1875-58.910156-89.789063" fill="#ffb38d"/><path d="m350.71875 233.257812c-122.457031 23.460938-118.757812 29.167969-212.527344 79.167969-32.171875 17.160157-47.171875 10.53125-54.171875-7.359375 8.621094 1.640625 20.320313-1.027344 36.210938-9.507812 93.769531-50.011719 90.070312-55.722656 212.53125-79.179688 93.976562-18.011718 98-62.320312 89.628906-79.792968 5.859375 2.910156 11.25 7.230468 15.847656 13.320312 10.5625 14 13.742188 63.949219-87.519531 83.351562zm0 0" fill="#e78f70"/><path d="m365.945312 130.910156 49.261719-14.632812c5.734375-1.703125 11.535157 2.320312 12.035157 8.28125 1.097656 13.039062-4.589844 34.359375-48.332032 45.347656-3 .753906-6.085937-.894531-7.125-3.804688l-9.78125-27.421874c-1.15625-3.242188.644532-6.789063 3.941406-7.769532zm0 0" fill="#ead2c1"/><path d="m473.40625 453.507812h-12.058594v-88.535156c1.898438-1.082031 3.613282-2.511718 5.015625-4.289062 3.296875-4.171875 4.480469-9.53125 3.25-14.699219l-2.488281-10.441406c-5.988281-25.152344-28.234375-42.722657-54.09375-42.722657h-73.703125c-25.859375 0-48.101563 17.566407-54.09375 42.722657l-2.484375 10.4375c-1.230469 5.171875-.050781 10.53125 3.242188 14.703125 1.40625 1.777344 3.121093 3.207031 5.023437 4.289062v25.457032c-13.359375 3.527343-24.648437 12.574218-31.023437 24.761718-1.785157-.269531-3.597657-.402344-5.425782-.402344-19.964844 0-36.210937 16.242188-36.210937 36.210938 0 .839844.03125 1.675781.085937 2.507812h-44.574218v-12.863281h13.28125c4.144531 0 7.5-3.355469 7.5-7.5s-3.355469-7.5-7.5-7.5h-13.28125v-4.605469c0-4.140624-3.359376-7.5-7.5-7.5-4.144532 0-7.5 3.359376-7.5 7.5v4.605469h-25.027344v-4.605469c0-4.140624-3.359375-7.5-7.5-7.5-4.144532 0-7.5 3.359376-7.5 7.5v4.605469h-25.027344v-4.605469c0-4.140624-3.359375-7.5-7.5-7.5-4.144531 0-7.5 3.359376-7.5 7.5v4.605469h-25.03125v-4.605469c0-4.140624-3.355469-7.5-7.5-7.5-4.140625 0-7.5 3.359376-7.5 7.5v4.605469h-13.28125c-4.144531 0-7.5 3.355469-7.5 7.5s3.355469 7.5 7.5 7.5h13.28125v12.863281h-.1875c-21.28125 0-38.59375 17.3125-38.59375 38.59375v9.289063c0 4.144531 3.355469 7.5 7.5 7.5h108.238281c4.144531 0 7.5-3.355469 7.5-7.5 0-4.140625-3.355469-7.5-7.5-7.5h-100.738281v-1.789063c0-13.011718 10.585938-23.59375 23.59375-23.59375h434.8125c13.007812 0 23.59375 10.582032 23.59375 23.59375v1.789063h-346.738281c-4.144531 0-7.5 3.359375-7.5 7.5 0 4.144531 3.355469 7.5 7.5 7.5h354.238281c4.144531 0 7.5-3.355469 7.5-7.5v-9.289063c0-21.28125-17.3125-38.59375-38.59375-38.59375zm-130.390625-33.664062h66.332031v9.375h-66.332031zm66.332031-15h-66.332031v-9.464844h66.332031zm-66.332031 39.375h66.332031v9.289062h-66.332031zm73.832031-63.839844h-81.332031c-4.144531 0-7.5 3.355469-7.5 7.5v65.628906h-22v-86.261718h140.332031v86.261718h-22v-65.628906c0-4.144531-3.359375-7.5-7.5-7.5zm-52.160156-28.132812v-13.527344h22.984375v13.527344zm-67.347656-2.789063 2.488281-10.4375c4.371094-18.371093 20.617187-31.199219 39.5-31.199219h73.703125c18.882812 0 35.128906 12.828126 39.503906 31.199219l2.484375 10.4375c.222657.929688-.171875 1.605469-.425781 1.929688-.253906.320312-.820312.859375-1.777344.859375h-50.144531v-21.027344c0-4.140625-3.355469-7.5-7.5-7.5h-37.980469c-4.144531 0-7.5 3.359375-7.5 7.5v21.027344h-50.148437c-.953125 0-1.523438-.539063-1.777344-.859375-.253906-.324219-.648437-1-.425781-1.929688zm-63.984375 101.542969c0-11.695312 9.515625-21.210938 21.210937-21.210938 2.472656 0 4.898438.421876 7.203125 1.253907 1.878907.679687 3.949219.578125 5.75-.273438 1.804688-.851562 3.195313-2.390625 3.863281-4.269531 3.332032-9.367188 10.582032-16.738281 19.628907-20.320312v47.328124h-57.5c-.097657-.828124-.15625-1.664062-.15625-2.507812zm-74.488281-10.355469v12.863281h-25.027344v-12.863281zm-40.027344 0v12.863281h-25.027344v-12.863281zm-65.058594 0h25.03125v12.863281h-25.03125zm0 0"/><path d="m61.109375 170.738281c9.179687 13.769531 9.214844 42.457031 9.246094 70.203125.042969 37.253906.085937 72.4375 20.726562 84.808594 4.617188 2.765625 9.894531 4.152344 15.882813 4.152344 9.660156 0 21.171875-3.609375 34.757812-10.851563 14.152344-7.550781 26.058594-14.074219 36.558594-19.828125 15.484375-8.484375 27.714844-15.1875 39.214844-20.820312 3.71875-1.820313 5.257812-6.3125 3.433594-10.03125-1.820313-3.722656-6.3125-5.261719-10.035157-3.4375-11.804687 5.785156-24.167969 12.558594-39.820312 21.136718-4.164063 2.28125-8.558594 4.6875-13.214844 7.226563l-5.703125-9.839844c-2.074219-3.582031-6.664062-4.804687-10.246094-2.726562-3.585937 2.074219-4.808594 6.664062-2.730468 10.246093l5.488281 9.476563c-3.207031 1.726563-6.535157 3.515625-10 5.363281-4.304688 2.292969-8.296875 4.148438-11.976563 5.578125l-1.261718-9.054687c-.570313-4.105469-4.367188-6.980469-8.460938-6.394532-4.105469.574219-6.964844 4.363282-6.394531 8.464844l1.460937 10.476563c-3.679687.128906-6.773437-.523438-9.242187-2.003907-13.359375-8.003906-13.398438-41.980468-13.4375-71.957031-.035157-29.972656-.070313-60.96875-11.765625-78.507812-17.78125-26.675781-41.824219-63.511719-58.859375-89.714844-2.261719-3.476563-6.90625-4.457031-10.378907-2.199219-3.472656 2.257813-4.457031 6.902344-2.199218 10.375 17.058594 26.234375 41.132812 63.121094 58.957031 89.859375zm0 0"/><path d="m134.457031 35.289062c1.429688 2.242188 3.855469 3.46875 6.328125 3.46875 1.382813 0 2.777344-.382812 4.027344-1.179687 3.492188-2.226563 4.519531-6.863281 2.289062-10.355469l-15.152343-23.753906c-2.226563-3.4960938-6.863281-4.515625-10.355469-2.292969-3.492188 2.230469-4.519531 6.867188-2.289062 10.359375zm0 0"/><path d="m185.675781 115.574219c4.003907 6.277343 10.210938 10.617187 17.480469 12.222656l82.433594 18.183594c12.460937 2.746093 25.046875 4.121093 37.675781 4.121093 11.21875 0 22.46875-1.09375 33.6875-3.261718l7.769531 21.78125c1.960938 5.5 7.089844 8.972656 12.679688 8.972656 1.101562 0 2.21875-.132812 3.335937-.414062 26.277344-6.601563 40.199219-17.003907 47.304688-27.511719 1.496093 1.441406 2.902343 3.03125 4.207031 4.757812 2.4375 3.230469 5.847656 12.457031 1.308594 24.246094-4.472656 11.617187-19.730469 32.054687-71.382813 44.449219.578125-4.121094.601563-9-.480469-14.566406-.789062-4.066407-4.722656-6.722657-8.789062-5.933594-4.066406.789062-6.722656 4.722656-5.933594 8.789062 1.40625 7.25-.023437 12.464844-1.136718 15.144532-5.558594 1.074218-10.847657 2.105468-15.859376 3.101562l-1.699218-6.777344c-1.007813-4.019531-5.085938-6.457031-9.101563-5.449218-4.015625 1.007812-6.457031 5.082031-5.449219 9.097656l1.535157 6.109375c-33.550781 6.941406-54.078125 12.308593-71.894531 18.574219-3.90625 1.375-5.960938 5.65625-4.585938 9.5625 1.085938 3.085937 3.980469 5.015624 7.074219 5.015624.824219 0 1.667969-.136718 2.488281-.425781 22.394531-7.878906 49.554688-14.351562 103.792969-24.742187 65.710937-12.589844 88.160156-37.703125 95.421875-56.554688 6.445312-16.742187 2.234375-31.296875-3.332032-38.675781-2.972656-3.9375-6.363281-7.367187-10.097656-10.25.832032-4.261719.871094-8.21875.5625-11.554687-.460937-4.984376-3.117187-9.460938-7.285156-12.28125-4.222656-2.859376-9.441406-3.667969-14.328125-2.214844l-49.265625 14.632812c-3.535156 1.050782-6.523438 3.539063-8.191406 6.832032-.226563.449218-.425782.90625-.597656 1.375-22.132813 4.40625-44.386719 4.210937-66.199219-.597657l-82.433594-18.1875c-3.355469-.738281-6.222656-2.742187-8.070313-5.636719l-32.203124-50.480468c-2.226563-3.492188-6.867188-4.515625-10.355469-2.289063-3.492188 2.230469-4.515625 6.863281-2.289063 10.355469zm231.671875 7.894531c.769532-.230469 1.363282.0625 1.648438.253906.3125.210938.695312.597656.757812 1.242188 1.5625 16.972656-12.730468 29.867187-41.363281 37.332031l-8.789063-24.648437zm0 0"/><path d="m155.027344 235.816406c21.042968 0 38.167968-17.125 38.167968-38.167968 0-4.144532-3.359374-7.5-7.5-7.5-4.144531 0-7.5 3.355468-7.5 7.5 0 12.773437-10.394531 23.167968-23.167968 23.167968-12.773438 0-23.167969-10.394531-23.167969-23.167968 0-4.144532-3.355469-7.5-7.5-7.5-4.140625 0-7.5 3.355468-7.5 7.5 0 21.042968 17.121094 38.167968 38.167969 38.167968zm0 0"/><path d="m464.675781 286.785156c1.910157 0 3.824219-.730468 5.285157-2.183594l7.9375-7.890624c2.9375-2.921876 2.949218-7.667969.027343-10.605469-2.917969-2.9375-7.667969-2.953125-10.605469-.03125l-7.933593 7.890625c-2.9375 2.921875-2.953125 7.667968-.03125 10.605468 1.464843 1.476563 3.390625 2.214844 5.320312 2.214844zm0 0"/><path d="m447.253906 245.679688c-3.988281-1.089844-8.117187 1.277343-9.199218 5.277343l-2.925782 10.796875c-1.085937 4 1.277344 8.117188 5.273438 9.203125.65625.175781 1.316406.261719 1.96875.261719 3.300781 0 6.328125-2.199219 7.230468-5.539062l2.929688-10.800782c1.082031-3.996094-1.277344-8.117187-5.277344-9.199218zm0 0"/><path d="m472.859375 303.601562c.890625 3.359376 3.925781 5.582032 7.246094 5.582032.632812 0 1.28125-.082032 1.921875-.253906l10.820312-2.863282c4.003906-1.0625 6.390625-5.167968 5.328125-9.171875-1.0625-4.003906-5.171875-6.390625-9.167969-5.328125l-10.820312 2.863282c-4.003906 1.0625-6.386719 5.167968-5.328125 9.171874zm0 0"/></svg>