<?xml version="1.0" encoding="iso-8859-1"?>
<!-- Generator: Adobe Illustrator 19.0.0, SVG Export Plug-In . SVG Version: 6.00 Build 0)  -->
<svg version="1.1" id="Capa_1" xmlns="http://www.w3.org/2000/svg" xmlns:xlink="http://www.w3.org/1999/xlink" x="0px" y="0px"
	 viewBox="0 0 511.999 511.999" style="enable-background:new 0 0 511.999 511.999;" xml:space="preserve">
<path style="fill:#2C7B7E;" d="M255.997,462.077V502c0.931,0,1.862-0.136,2.763-0.406c53.591-16.077,104.685-53.919,143.87-106.557
	c36.133-48.551,55.231-106.202,55.231-166.722V102.25c0-5.307-4.304-9.609-9.613-9.609c-104.75,0-161.042-55.955-179.541-74.343
	c-3.765-3.744-5.656-5.622-7.648-6.856c-1.55-0.961-3.306-1.442-5.062-1.442v49.305"/>
<path style="fill:#81B4A7;" d="M255.734,59.068c0.087,0.079,0.175,0.158,0.263,0.237V10c-1.757,0-3.514,0.48-5.065,1.441
	c-1.37,0.849-2.473,1.926-5.139,4.53c-6.849,6.688-22.886,22.352-47.685,37.857C156.9,79.582,111.693,92.64,63.745,92.64
	c-5.309,0-9.613,4.302-9.613,9.609v126.066c0,60.52,19.098,118.171,55.232,166.723c39.185,52.637,90.278,90.48,143.869,106.557
	c0.901,0.27,1.832,0.406,2.763,0.406v-39.923h-0.001"/>
<path style="fill:#F6DAB9;" d="M255.996,462.077c-42.729-15.044-83.575-46.719-115.785-89.987
	c-31.158-41.865-47.628-91.583-47.628-143.775v-98.627c44.588-4.343,86.828-18.843,125.908-43.268
	c15.466-9.669,27.892-19.338,37.243-27.352c27.051,24.435,79.859,63.275,163.676,70.745v98.502c0,52.192-16.47,101.91-47.63,143.778
	C339.577,415.356,298.737,447.027,255.996,462.077z"/>
<path d="M448.25,82.641c-100.627,0-154.717-53.767-172.49-71.435c-4.169-4.144-6.465-6.427-9.432-8.265
	c-3.103-1.922-6.672-2.939-10.321-2.941h-0.012c-3.653,0-7.226,1.018-10.327,2.94c-2.31,1.431-3.927,3.01-6.868,5.884
	c-6.618,6.463-22.116,21.598-45.99,36.524C153.214,70.094,109.792,82.64,63.746,82.64c-10.814,0-19.612,8.797-19.612,19.609v126.065
	c0,62.687,19.783,122.403,57.211,172.694c40.459,54.35,93.382,93.473,149.021,110.165c1.831,0.548,3.726,0.826,5.633,0.826
	c1.907,0,3.802-0.278,5.636-0.828c55.636-16.69,108.559-55.813,149.02-110.165c37.427-50.289,57.209-110.005,57.209-172.692V102.25
	C467.862,91.438,459.064,82.641,448.25,82.641z M255.996,451.438c-39.605-14.832-77.756-45.009-107.762-85.318
	c-29.865-40.127-45.651-87.779-45.651-137.804v-89.693c42.801-5.488,83.533-20.176,121.209-43.723
	c11.024-6.892,21.681-14.499,31.773-22.675c43.822,37.367,95.496,59.741,153.846,66.608v89.483
	c0,50.025-15.786,97.678-45.652,137.807C333.754,406.428,295.603,436.604,255.996,451.438z M117.388,389.068
	c-34.84-46.813-53.255-102.4-53.255-160.752V102.64c49.709-0.069,96.563-13.638,139.277-40.333
	c19.502-12.193,33.75-24.454,42.587-32.685v24.581c-10.345,8.61-21.364,16.584-32.806,23.737
	c-37.672,23.544-78.576,37.606-121.578,41.794c-5.123,0.5-9.03,4.806-9.03,9.953v98.627c0,54.36,17.153,106.141,49.607,149.746
	c31.531,42.357,71.718,74.423,113.807,90.96v19.681C198.149,471.694,152.809,436.65,117.388,389.068z M447.862,228.315
	c0,58.353-18.415,113.939-53.253,160.75c-35.425,47.587-80.763,82.631-128.611,99.637V469.02
	c42.09-16.539,82.276-48.603,113.806-90.956c32.454-43.607,49.608-95.389,49.608-149.749v-98.502c0-5.179-3.954-9.501-9.112-9.96
	c-59.008-5.259-110.895-27.137-154.302-65.045V29.671c22.822,22.244,80.434,72.843,181.864,72.969V228.315z"/>
<path d="M255.995,428.666c-1.426,0-2.851-0.305-4.176-0.914c-32.248-14.821-62.44-40.317-87.313-73.73
	c-8.285-11.131-15.476-23.055-21.374-35.44c-2.375-4.986-0.258-10.954,4.729-13.328c4.985-2.374,10.953-0.258,13.328,4.729
	c5.339,11.211,11.854,22.01,19.361,32.098c21.783,29.264,47.789,51.826,75.445,65.507c27.659-13.682,53.665-36.242,75.446-65.501
	c3.298-4.43,9.561-5.349,13.993-2.05c4.43,3.298,5.348,9.563,2.05,13.993c-24.869,33.408-55.062,58.901-87.313,73.724
	C258.846,428.361,257.421,428.666,255.995,428.666z"/>
<path d="M133.554,255.254c-5.147,0-9.52-3.95-9.954-9.172c-0.487-5.864-0.734-11.842-0.734-17.767v-64.167
	c0-4.721,3.301-8.798,7.918-9.781c36.334-7.735,71.245-21.961,103.762-42.284c4.997-3.124,9.991-6.432,14.843-9.831
	c3.504-2.455,8.185-2.409,11.64,0.117c35.71,26.104,76.102,43.769,120.051,52.504c4.68,0.93,8.051,5.037,8.051,9.808v63.633
	c0,5.523-4.478,10-10,10s-10-4.477-10-10v-55.527c-41.385-9.28-79.704-26.116-114.119-50.139c-3.263,2.191-6.563,4.331-9.864,6.395
	c-32.136,20.084-66.508,34.564-102.28,43.099v56.173c0,5.374,0.224,10.794,0.666,16.11c0.457,5.504-3.634,10.336-9.138,10.794
	C134.112,255.243,133.832,255.254,133.554,255.254z"/>
<path d="M139.856,292.17c-0.659,0-1.31-0.06-1.96-0.19c-0.64-0.13-1.27-0.32-1.869-0.57c-0.601-0.25-1.181-0.56-1.73-0.92
	c-0.54-0.37-1.06-0.78-1.52-1.25c-0.461-0.46-0.881-0.97-1.24-1.52c-0.36-0.54-0.67-1.12-0.92-1.72c-0.25-0.61-0.44-1.23-0.57-1.87
	c-0.13-0.65-0.2-1.3-0.2-1.96c0-0.65,0.07-1.31,0.2-1.95c0.13-0.64,0.32-1.27,0.57-1.87s0.56-1.19,0.92-1.73
	c0.359-0.55,0.779-1.06,1.24-1.52c0.46-0.46,0.979-0.88,1.52-1.24c0.55-0.36,1.13-0.67,1.73-0.92c0.6-0.25,1.229-0.44,1.869-0.57
	c1.29-0.26,2.62-0.26,3.91,0c0.641,0.13,1.271,0.32,1.87,0.57c0.601,0.25,1.18,0.56,1.73,0.92c0.54,0.36,1.05,0.78,1.52,1.24
	c0.46,0.46,0.88,0.97,1.24,1.52c0.36,0.54,0.67,1.13,0.92,1.73s0.44,1.23,0.57,1.87c0.13,0.64,0.189,1.3,0.189,1.95
	c0,0.66-0.06,1.31-0.189,1.96c-0.13,0.64-0.32,1.26-0.57,1.87c-0.25,0.6-0.56,1.18-0.92,1.72c-0.36,0.55-0.78,1.06-1.24,1.52
	c-0.47,0.47-0.979,0.88-1.52,1.25c-0.551,0.36-1.13,0.67-1.73,0.92c-0.6,0.25-1.229,0.44-1.87,0.57
	C141.157,292.11,140.507,292.17,139.856,292.17z"/>
<path style="fill:#F24141;" d="M241.23,279.534c0,33.748-16.797,55.354-16.797,55.354l31.564,14.026l31.564-14.026
	c0,0-16.797-21.607-16.797-55.354c33.759,0,55.372,16.791,55.372,16.791l14.03-31.553l-14.03-31.553
	c0,0-21.614,16.791-55.372,16.791c0-33.747,16.797-55.354,16.797-55.354l-31.564-14.027l-31.564,14.026
	c0,0,16.797,21.607,16.797,55.354c-33.759,0-55.372-16.791-55.372-16.791l-14.03,31.553l14.03,31.553
	C185.857,296.325,207.471,279.534,241.23,279.534z"/>
<path d="M255.997,358.914c-1.384,0-2.769-0.287-4.061-0.862l-31.563-14.026c-2.811-1.249-4.89-3.721-5.639-6.704
	c-0.749-2.982-0.083-6.144,1.804-8.572c0.104-0.138,11.272-15.042,14.064-38.603c-23.791,2.768-38.444,13.944-38.61,14.073
	c-2.429,1.886-5.589,2.55-8.569,1.802c-2.982-0.749-5.454-2.827-6.703-5.636l-14.03-31.553c-1.149-2.586-1.149-5.54,0-8.126
	l14.03-31.553c1.249-2.809,3.721-4.888,6.703-5.636c2.979-0.747,6.142-0.083,8.569,1.802c0.138,0.104,15.049,11.271,38.622,14.062
	c-2.77-23.778-13.947-38.425-14.076-38.59c-1.887-2.428-2.553-5.589-1.804-8.572s2.828-5.455,5.639-6.704l31.563-14.026
	c2.584-1.149,5.537-1.149,8.121,0l31.563,14.026c2.811,1.249,4.89,3.721,5.639,6.704s0.083,6.144-1.804,8.572
	c-0.105,0.138-11.272,15.042-14.064,38.602c23.791-2.768,38.444-13.944,38.61-14.073c2.428-1.887,5.591-2.549,8.569-1.802
	c2.982,0.749,5.454,2.827,6.703,5.636l14.03,31.553c1.149,2.586,1.149,5.54,0,8.126l-14.03,31.553
	c-1.249,2.809-3.721,4.888-6.703,5.636c-2.979,0.747-6.142,0.084-8.569-1.802c-0.138-0.104-15.045-11.267-38.608-14.06
	c2.794,23.555,13.961,38.456,14.09,38.625c1.855,2.432,2.509,5.599,1.751,8.562c-0.759,2.964-2.817,5.436-5.613,6.678
	l-31.563,14.026C258.767,358.627,257.382,358.914,255.997,358.914z M238.887,330.368l17.11,7.603l17.11-7.603
	c-5.464-10.491-12.343-28.195-12.343-50.834c0-5.523,4.478-10,10-10c22.65,0,40.361,6.879,50.854,12.341l7.604-17.104l-7.604-17.104
	c-10.492,5.462-28.203,12.341-50.854,12.341c-5.522,0-10-4.477-10-10c0-22.64,6.879-40.344,12.342-50.834l-17.109-7.602
	l-17.109,7.603c5.463,10.49,12.342,28.194,12.342,50.834c0,5.523-4.478,10-10,10c-22.65,0-40.361-6.879-50.854-12.341l-7.604,17.104
	l7.604,17.104c10.492-5.462,28.203-12.341,50.854-12.341c5.522,0,10,4.477,10,10C251.229,302.173,244.351,319.877,238.887,330.368z"
	/>
<g>
</g>
<g>
</g>
<g>
</g>
<g>
</g>
<g>
</g>
<g>
</g>
<g>
</g>
<g>
</g>
<g>
</g>
<g>
</g>
<g>
</g>
<g>
</g>
<g>
</g>
<g>
</g>
<g>
</g>
</svg>
