<?xml version="1.0" encoding="iso-8859-1"?>
<!-- Generator: Adobe Illustrator 19.0.0, SVG Export Plug-In . SVG Version: 6.00 Build 0)  -->
<svg version="1.1" id="Capa_1" xmlns="http://www.w3.org/2000/svg" xmlns:xlink="http://www.w3.org/1999/xlink" x="0px" y="0px"
	 viewBox="0 0 512 512" style="enable-background:new 0 0 512 512;" xml:space="preserve">
<path style="fill:#41AA5F;" d="M196.944,163.814l43.154-10.69c-27.443-23.915-31.987-32.893-51.38-36.2l22.738-78.051
	l-57.501,53.536c-9.212-17.372-26.879-42.001-58.757-60.652l11.428,67.89c-18.031,0.406-42.683,3.783-73.348,14.505l71.401,37.537
	l42.727,30.703l58.35,55.699C206.145,205.001,201.838,180.65,196.944,163.814z"/>
<path style="fill:#9B4B14;" d="M140.724,153.583c-7.659-7.961-20.319-8.204-28.279-0.547c-3.388,3.259-82.898,80.736-76.681,160.278
	c2.316,29.636,9.181,57.044,16.302,78.756c3.841-0.867,7.832-1.34,11.935-1.34c13.327,0,25.517,4.837,34.935,12.839
	c-8.275-20.072-20.281-54.831-23.294-93.371c-4.74-60.641,63.857-127.681,64.535-128.336
	C148.137,174.204,148.382,161.543,140.724,153.583z"/>
<g>
	<circle style="fill:#6E6E6E;" cx="110.07" cy="155.78" r="20"/>
	<circle style="fill:#6E6E6E;" cx="142.55" cy="179.12" r="20"/>
</g>
<path style="fill:#5AD2E6;" d="M316,318.73c44.183,0,80,33,80,86c0,44.183-35.817,80-80,80H156c-22.091,0-40-17.909-40-40
	s17.909-40,40-40h60c11.046,0,20-8.954,20-20s-8.954-20-20-20h-15c-12.703,0-23-10.297-23-23s10.297-23,23-23H316z"/>
<path style="fill:#41AA5F;" d="M338.335,159.814l-43.154-10.69c27.443-23.915,31.987-32.893,51.38-36.2l-22.738-78.051
	l57.501,53.536c9.212-17.372,26.879-42.001,58.757-60.652l-11.428,67.89c18.031,0.406,42.683,3.783,73.348,14.505L430.6,147.689
	l-42.727,30.703l-58.35,55.699C329.134,201.001,333.441,176.65,338.335,159.814z"/>
<path style="fill:#9B4B14;" d="M422.834,153.037c-7.959-7.657-9.274,2.733-16.933,10.693c-7.658,7.96-18.759,10.474-10.799,18.132
	c0.677,0.655,69.275,67.695,64.535,128.336c-2.452,31.373-10.866,60.242-18.373,80.722c14.297,1.144,27.02,7.848,36.006,17.959
	c8.867-23.355,19.281-57.635,22.245-95.565C505.733,233.773,426.222,156.296,422.834,153.037z"/>
<g>
	<circle style="fill:#6E6E6E;" cx="425.21" cy="155.78" r="20"/>
	<circle style="fill:#6E6E6E;" cx="392.73" cy="179.12" r="20"/>
</g>
<path d="M453.823,146.777l52.831-27.774c3.524-1.853,5.613-5.619,5.319-9.589c-0.293-3.971-2.914-7.389-6.672-8.702
	c-22.732-7.948-44.516-12.796-64.926-14.46l9.567-56.835c0.645-3.829-0.986-7.685-4.181-9.891c-3.196-2.205-7.38-2.361-10.73-0.4
	C407.49,35.238,389.9,55.585,379.003,72.584l-48.366-45.03c-3.293-3.065-8.229-3.554-12.061-1.194
	c-3.831,2.361-5.613,6.99-4.354,11.311l19.861,68.177c-10.773,3.92-18.023,10.646-29.106,20.927
	c-4.576,4.245-9.762,9.057-16.366,14.812c-2.812,2.45-4.026,6.262-3.151,9.887c0.876,3.625,3.696,6.462,7.316,7.359l33.322,8.254
	c-4.656,19.858-6.865,42.383-6.575,67.122c0.047,3.981,2.451,7.555,6.12,9.1c1.252,0.527,2.57,0.783,3.878,0.783
	c2.524,0,5.01-0.956,6.907-2.767l39.448-37.898c4.918,3.278,10.786,4.819,16.868,4.819h0.001c3.932,0,7.762-0.439,11.333-1.846
	c19.201,23.014,48.554,64.988,45.59,102.901c-2.149,27.493-9.142,53.104-15.424,71.434c-10.353,0.432-20.366,3.405-29.216,8.487
	c-2.758-21.466-11.362-40.282-25.294-54.597c-16.412-16.863-39.047-26.379-63.734-26.379H201c-18.196,0-33,14.804-33,33
	s14.804,33,33,33h15c5.514,0,10,4.486,10,10s-4.486,10-10,10h-60c-15.302,0-29.013,7.16-38.192,18.023
	c-2.715-4.9-6.025-9.262-9.862-13.206c-8.692-21.194-19.522-53.728-22.334-89.702c-2.956-37.815,26.237-79.519,45.431-102.561
	c3.617,1.508,7.502,2.309,11.493,2.309c5.124,0,10.092-1.322,14.473-3.733l41.843,39.945c1.897,1.812,4.382,2.768,6.907,2.768
	c1.308,0,2.626-0.256,3.878-0.782c3.669-1.545,6.073-5.118,6.12-9.099c0.291-24.739-1.919-47.263-6.575-67.122l33.322-8.254
	c3.62-0.897,6.44-3.734,7.316-7.359c0.875-3.625-0.339-7.436-3.151-9.887c-6.604-5.755-11.79-10.566-16.366-14.812
	c-11.083-10.281-18.333-17.007-29.106-20.927l19.861-68.177c1.258-4.32-0.524-8.949-4.355-11.311
	c-3.831-2.361-8.767-1.872-12.06,1.194l-48.366,45.03c-10.896-16.999-28.487-37.346-56.028-53.458
	c-3.351-1.96-7.534-1.804-10.73,0.4c-3.195,2.206-4.826,6.062-4.181,9.891l9.567,56.835c-20.409,1.664-42.194,6.512-64.926,14.46
	c-3.758,1.313-6.379,4.731-6.672,8.702c-0.294,3.97,1.795,7.736,5.319,9.589l51.952,27.313c-1.232,6.706-0.14,13.67,3.078,19.674
	c-25.151,30.712-62.357,86.582-57.862,144.104c1.805,23.084,6.431,47.092,13.761,71.5C16.359,395.217,0,418.095,0,444.73
	c0,5.522,4.477,10,10,10s10-4.478,10-10c0-24.262,19.738-44,44-44c23.551,0,42,19.084,42,43.757c0,27.57,22.43,49.757,50,49.757h160
	c46.539,0,84.941-35.265,89.538-80.612c8.251-8.379,19.556-13.023,31.363-13.023c24.262,0,44,19.799,44,44.061
	c0,5.522,4.477,10.03,10,10.03s10-4.462,10-9.985c0-14.068-4.573-27.075-12.297-37.65c8.339-22.969,18.012-56.271,20.881-92.976
	c4.496-57.529-32.722-113.41-57.875-144.122C455.395,162.903,456.252,154.515,453.823,146.777z M118.19,161.614
	c-1.902,2.647-4.869,4.166-8.138,4.166c-2.094,0-4.106-0.65-5.819-1.881c-2.169-1.559-3.601-3.868-4.033-6.504
	c-0.432-2.637,0.189-5.282,1.748-7.452c1.902-2.647,4.868-4.166,8.138-4.166c2.094,0,4.106,0.65,5.819,1.881
	c2.169,1.559,3.601,3.868,4.033,6.505C120.369,156.799,119.749,159.445,118.19,161.614z M150.673,184.956
	c-1.902,2.647-4.868,4.166-8.137,4.166c-2.095,0-4.107-0.65-5.819-1.881c-2.169-1.559-3.601-3.868-4.033-6.504
	c-0.432-2.637,0.189-5.282,1.748-7.452c1.902-2.647,4.868-4.166,8.137-4.166c2.095,0,4.107,0.65,5.819,1.881
	c2.169,1.559,3.602,3.868,4.033,6.505C152.853,180.14,152.232,182.786,150.673,184.956z M59.46,116.618
	c16.649-4.3,32.518-6.639,47.393-6.975c2.902-0.065,5.633-1.389,7.482-3.626s2.635-5.168,2.153-8.031l-7.505-44.584
	c18.308,14.846,29.545,31.258,36.137,43.69c1.457,2.747,4.108,4.66,7.175,5.177c3.065,0.514,6.198-0.424,8.474-2.542l30.934-28.8
	l-12.585,43.199c-0.797,2.737-0.388,5.685,1.124,8.102c1.513,2.417,3.985,4.073,6.796,4.553
	c11.707,1.997,16.231,6.194,29.662,18.654c0.862,0.8,1.765,1.638,2.71,2.512l-24.871,6.16c-2.642,0.655-4.902,2.357-6.261,4.716
	s-1.697,5.169-0.937,7.782c4.108,14.134,6.729,30.061,7.834,47.561l-24.841-23.712c2.08-5.073,2.732-10.634,1.823-16.181
	c-1.295-7.908-5.592-14.839-12.1-19.515c-5.134-3.688-11.182-5.639-17.489-5.639c-1.078,0-2.146,0.078-3.207,0.193
	c-1.587-7.233-5.727-13.543-11.786-17.896c-5.134-3.688-11.182-5.639-17.489-5.639c-7.211,0-14.124,2.613-19.504,7.202
	L59.46,116.618z M64,380.73c-1.637,0-3.253,0.082-4.859,0.203c-0.038,0.001-0.07-0.011-0.109-0.008
	c-7.11-23.417-11.579-46.386-13.299-68.391c-3.951-50.552,29.51-100.822,52.673-129.118c3.661,1.55,7.598,2.363,11.646,2.363
	c1.078,0,2.146-0.08,3.207-0.195c0.608,2.769,1.592,5.401,2.913,7.842c-5.662,6.769-12.157,15.083-18.558,24.478
	c-23.344,34.259-34.091,65.573-31.942,93.073c2.092,26.766,8.285,51.686,14.967,71.959c0.002,0.02,0.002,0.034,0.003,0.053
	C75.362,381.526,69.789,380.73,64,380.73z M316,474.243H156c-16.542,0-30-13.458-30-30s13.458-30,30-30h60c16.542,0,30-13.458,30-30
	s-13.458-30-30-30h-15c-7.168,0-13-5.832-13-13s5.832-13,13-13h115c41.215,0,70,31.252,70,76
	C386,442.841,354.598,474.243,316,474.243z M402.595,180.737c-0.432,2.636-1.864,4.945-4.032,6.504
	c-1.713,1.23-3.725,1.881-5.819,1.881c-3.27,0-6.235-1.519-8.138-4.167c-1.559-2.169-2.179-4.814-1.748-7.451
	c0.432-2.636,1.864-4.945,4.033-6.504c1.712-1.23,3.725-1.881,5.819-1.881c3.269,0,6.235,1.519,8.137,4.166
	C402.406,175.455,403.027,178.1,402.595,180.737z M395.918,149.312c-1.061-0.115-2.129-0.193-3.207-0.193
	c-6.308,0-12.355,1.95-17.489,5.639c-6.508,4.676-10.805,11.606-12.1,19.515c-0.738,4.506-0.447,8.957,0.801,13.156l-23.82,22.737
	c1.106-17.5,3.727-33.427,7.835-47.561c0.76-2.613,0.421-5.424-0.937-7.782s-3.619-4.061-6.261-4.716l-24.871-6.16
	c0.945-0.874,1.848-1.712,2.71-2.512c13.431-12.46,17.956-16.657,29.662-18.654c2.811-0.479,5.283-2.136,6.796-4.553
	c1.512-2.417,1.921-5.364,1.124-8.102l-12.585-43.199l30.934,28.8c2.276,2.119,5.409,3.057,8.474,2.542
	c3.066-0.517,5.718-2.43,7.175-5.177c6.592-12.433,17.83-28.845,36.137-43.69l-7.505,44.584c-0.482,2.863,0.304,5.794,2.153,8.031
	c1.85,2.237,4.58,3.561,7.482,3.626c14.875,0.336,30.743,2.675,47.392,6.974l-34.276,18.02c-4.81-3.12-10.479-4.86-16.35-4.86
	c-6.308,0-12.355,1.95-17.489,5.639C401.645,135.769,397.505,142.08,395.918,149.312z M417.09,161.615
	c-1.559-2.17-2.18-4.816-1.748-7.452c0.432-2.637,1.864-4.946,4.033-6.505c1.712-1.23,3.724-1.881,5.818-1.881
	c3.27,0,6.235,1.519,8.138,4.166c1.559,2.17,2.179,4.815,1.748,7.452c-0.432,2.636-1.864,4.945-4.032,6.504
	c-1.713,1.23-3.725,1.881-5.819,1.881C421.958,165.78,418.992,164.261,417.09,161.615z M489.546,312.535
	c-2.363,30.229-9.677,58.127-16.76,79.193c-0.002,0.011-0.004,0.022-0.006,0.033c-5.53-3.758-11.682-6.658-18.259-8.545
	c0.004-0.005,0.008-0.01,0.012-0.016c6.303-19.146,12.922-44.711,15.073-72.223c2.149-27.5-8.598-58.814-31.942-93.073
	c-6.424-9.428-12.941-17.765-18.62-24.549c1.354-2.476,2.23-5.121,2.834-7.865c1.069,0.117,2.12,0.24,3.12,0.24v0.024
	c4,0,7.99-0.816,11.729-2.375C459.893,211.671,493.499,261.962,489.546,312.535z"/>
<path d="M329.741,349.612c-6.4-2.63-13.26-4.368-20.37-4.368h-0.1c-5.52,0-10,4.888-10,10.408c0,5.51,4.48,10.204,10,10.204
	c9.13,0.029,17.1,3.352,23.05,9.432c6.3,6.51,9.65,15.771,9.68,26.661c-0.01,8.73-3.41,16.732-9.59,22.923
	c-6.19,6.18-14.41,9.372-23.14,9.372h-2.52c-5.51,0-10,4.49-10,10c0,5.52,4.49,10,10,10h2.52c7.12,0,14.02-1.157,20.52-3.907
	c6.28-2.649,11.92-6.328,16.76-11.178c4.84-4.84,8.65-10.42,11.3-16.699c2.75-6.5,4.15-13.37,4.15-20.49
	c0.03-15.989-5.42-30.588-15.35-40.749C341.871,356.291,336.181,352.261,329.741,349.612z"/>
<path d="M266.751,434.73c-5.51,0-10,4.49-10,10s4.49,10,10,10s10-4.49,10-10S272.261,434.73,266.751,434.73z"/>
<g>
</g>
<g>
</g>
<g>
</g>
<g>
</g>
<g>
</g>
<g>
</g>
<g>
</g>
<g>
</g>
<g>
</g>
<g>
</g>
<g>
</g>
<g>
</g>
<g>
</g>
<g>
</g>
<g>
</g>
</svg>
