<?xml version="1.0" encoding="iso-8859-1"?>
<!-- Generator: Adobe Illustrator 19.0.0, SVG Export Plug-In . SVG Version: 6.00 Build 0)  -->
<svg version="1.1" id="Capa_1" xmlns="http://www.w3.org/2000/svg" xmlns:xlink="http://www.w3.org/1999/xlink" x="0px" y="0px"
	 viewBox="0 0 512 512" style="enable-background:new 0 0 512 512;" xml:space="preserve">
<g>
	<path style="fill:#C6C5CA;" d="M125.458,191.856C42.478,152.868,23.007,70.805,23.007,70.805
		c-37.165,99.975,12.485,178.737,54.826,210.668"/>
	<path style="fill:#C6C5CA;" d="M434.166,281.474c42.34-31.933,91.991-110.693,54.826-210.668c0,0-19.471,82.064-102.451,121.051"/>
</g>
<polygon style="fill:#FF9929;" points="214.177,134.896 256,92.996 297.823,134.896 297.823,360.559 214.177,360.559 "/>
<g>
	<path style="fill:#FFC477;" d="M75.405,309.735v50.824h138.772V147.807C135.591,159.87,75.405,227.774,75.405,309.735z"/>
	<path style="fill:#FFC477;" d="M297.823,147.807v212.752h138.772v-50.824C436.595,227.774,376.41,159.87,297.823,147.807z"/>
</g>
<rect x="41.28" y="360.558" style="fill:#898890;" width="429.435" height="80.64"/>
<path d="M433.664,410.878c-0.66,0-1.311-0.07-1.96-0.19c-0.641-0.13-1.271-0.33-1.87-0.58c-0.601-0.239-1.181-0.55-1.73-0.909
	c-0.54-0.37-1.05-0.79-1.52-1.25c-1.86-1.86-2.932-4.441-2.932-7.072c0-0.65,0.07-1.31,0.2-1.95s0.32-1.27,0.57-1.87
	c0.25-0.609,0.56-1.189,0.92-1.729c0.37-0.55,0.78-1.061,1.24-1.521c0.47-0.46,0.979-0.88,1.52-1.239
	c0.55-0.36,1.13-0.671,1.73-0.921c0.609-0.25,1.229-0.449,1.87-0.569c1.29-0.271,2.621-0.271,3.91,0
	c0.641,0.12,1.271,0.319,1.87,0.569c0.601,0.25,1.181,0.561,1.73,0.921c0.54,0.359,1.06,0.779,1.52,1.239
	c0.46,0.46,0.88,0.971,1.24,1.521c0.36,0.54,0.67,1.12,0.92,1.729c0.25,0.601,0.44,1.23,0.57,1.87c0.13,0.641,0.189,1.3,0.189,1.95
	c0,2.631-1.06,5.211-2.921,7.072c-0.46,0.46-0.979,0.88-1.52,1.25c-0.55,0.359-1.13,0.67-1.73,0.909c-0.6,0.25-1.229,0.45-1.87,0.58
	C434.973,410.808,434.313,410.878,433.664,410.878z"/>
<path d="M500.802,205.052c15.717-43.541,14.876-91.168-2.435-137.732c-1.532-4.123-5.564-6.748-9.974-6.491
	c-4.391,0.263-8.098,3.372-9.129,7.649c-0.047,0.195-4.885,19.84-19.33,43.704c-17.962,29.674-42.042,52.41-71.644,67.665
	c-22.792-20.273-50.561-34.266-80.467-40.405v-4.547c0-2.65-1.051-5.19-2.924-7.066l-41.823-41.9
	c-1.875-1.88-4.423-2.937-7.079-2.937c-2.656,0-5.203,1.056-7.08,2.937l-41.823,41.9c-1.871,1.875-2.923,4.416-2.923,7.066v4.547
	c-29.905,6.138-57.675,20.131-80.466,40.405c-29.601-15.255-53.681-37.99-71.642-67.665C37.62,88.318,32.784,68.674,32.741,68.497
	c-1.017-4.287-4.72-7.404-9.118-7.675c-4.393-0.281-8.455,2.369-9.99,6.499c-17.309,46.564-18.15,94.191-2.435,137.732
	c11.457,31.739,31.646,60.811,55.87,80.676c-1.103,7.914-1.664,15.934-1.664,24.006v40.823H41.284
	c-5.524,0-10.002,4.479-10.002,10.002v80.638c0,5.523,4.478,10.002,10.002,10.002h429.433c5.523,0,10.002-4.479,10.002-10.002
	v-80.638c0-5.523-4.479-10.002-10.002-10.002h-24.119v-40.823c0-8.072-0.562-16.092-1.665-24.007
	C469.156,265.863,489.344,236.792,500.802,205.052z M224.18,139.033L256,107.154l31.82,31.879v211.524h-21.817v-152.51
	c0-5.523-4.479-10.002-10.002-10.002c-5.523,0-10.002,4.479-10.002,10.002v152.51h-21.817L224.18,139.033L224.18,139.033z
	 M24.104,102.261c2.805,5.994,6.249,12.621,10.436,19.598c13.247,22.069,36.581,51.635,74.43,72.771
	c-0.406,0.459-0.81,0.92-1.211,1.384c-16.939,19.567-29.157,42.531-35.996,67.12C41.095,233.71,7.717,176.828,24.104,102.261z
	 M85.408,309.734c0-71.333,50.292-133.764,118.767-149.809v190.632H85.408V309.734z M460.714,431.194H51.286V410.88h340.669
	c5.523,0,10.002-4.479,10.002-10.002c0-5.523-4.479-10.002-10.002-10.002H51.286V370.56h409.428V431.194z M307.825,350.557V159.925
	c68.476,16.045,118.767,78.475,118.767,149.809v40.823H307.825z M404.242,196.013c-0.401-0.464-0.805-0.925-1.211-1.384
	c37.85-21.136,61.183-50.701,74.43-72.771c4.188-6.977,7.631-13.603,10.437-19.598c16.387,74.568-16.991,131.449-47.659,160.872
	C433.399,238.544,421.18,215.58,404.242,196.013z"/>
<g>
</g>
<g>
</g>
<g>
</g>
<g>
</g>
<g>
</g>
<g>
</g>
<g>
</g>
<g>
</g>
<g>
</g>
<g>
</g>
<g>
</g>
<g>
</g>
<g>
</g>
<g>
</g>
<g>
</g>
</svg>
