<?xml version="1.0" encoding="iso-8859-1"?>
<!-- Generator: Adobe Illustrator 19.0.0, SVG Export Plug-In . SVG Version: 6.00 Build 0)  -->
<svg version="1.1" id="Capa_1" xmlns="http://www.w3.org/2000/svg" xmlns:xlink="http://www.w3.org/1999/xlink" x="0px" y="0px"
	 viewBox="0 0 512 512" style="enable-background:new 0 0 512 512;" xml:space="preserve">
<polyline style="fill:#C6C5CA;" points="290.713,456.332 366.365,456.332 366.365,370.779 145.634,370.779 145.634,456.332 
	221.286,456.332 "/>
<rect x="205.14" y="277.73" style="fill:#A84926;" width="101.71" height="93.05"/>
<rect x="145.63" y="145.049" style="fill:#C6C5CA;" width="220.73" height="132.68"/>
<g>
	<rect x="127.76" y="277.73" style="fill:#DA5B2C;" width="77.38" height="93.05"/>
	<rect x="306.86" y="277.73" style="fill:#DA5B2C;" width="77.38" height="93.05"/>
</g>
<polygon style="fill:#898890;" points="120.95,145.049 256,10 391.05,145.049 "/>
<path style="fill:#2C7B7E;" d="M290.713,502h-69.427v-57.735c0-19.172,15.542-34.714,34.714-34.714l0,0
	c19.172,0,34.714,15.542,34.714,34.714L290.713,502L290.713,502z"/>
<g>
	<rect x="145.63" y="456.329" style="fill:#DA5B2C;" width="75.65" height="45.668"/>
	<rect x="290.71" y="456.329" style="fill:#DA5B2C;" width="75.65" height="45.668"/>
</g>
<g>
	<path style="fill:#F6DAB9;" d="M235.307,277.73H179.84v-45.483c0-15.317,12.417-27.734,27.734-27.734l0,0
		c15.317,0,27.734,12.417,27.734,27.734L235.307,277.73L235.307,277.73z"/>
	<path style="fill:#F6DAB9;" d="M332.16,277.73h-55.467v-45.483c0-15.317,12.417-27.734,27.734-27.734l0,0
		c15.317,0,27.734,12.417,27.734,27.734v45.483H332.16z"/>
</g>
<path d="M306.139,121.459c-0.649,0-1.31-0.06-1.95-0.19c-0.64-0.13-1.27-0.32-1.87-0.57c-0.609-0.25-1.189-0.56-1.729-0.92
	c-0.55-0.37-1.06-0.78-1.521-1.24c-0.46-0.47-0.88-0.98-1.239-1.52c-0.36-0.55-0.67-1.13-0.92-1.73c-0.25-0.6-0.44-1.23-0.57-1.87
	c-0.13-0.65-0.2-1.3-0.2-1.96c0-2.63,1.07-5.21,2.93-7.07c0.461-0.46,0.971-0.88,1.521-1.24c0.54-0.36,1.12-0.67,1.729-0.92
	c0.601-0.25,1.23-0.44,1.87-0.57c1.29-0.26,2.62-0.26,3.91,0c0.63,0.13,1.26,0.32,1.87,0.57c0.6,0.25,1.18,0.56,1.72,0.92
	c0.551,0.36,1.061,0.78,1.521,1.24c1.859,1.86,2.93,4.44,2.93,7.07c0,0.66-0.06,1.31-0.189,1.96c-0.131,0.64-0.32,1.27-0.57,1.87
	c-0.25,0.6-0.561,1.18-0.92,1.73c-0.37,0.54-0.79,1.05-1.25,1.52c-0.46,0.46-0.97,0.87-1.521,1.24c-0.54,0.36-1.12,0.67-1.72,0.92
	c-0.61,0.25-1.24,0.44-1.87,0.57C307.45,121.399,306.79,121.459,306.139,121.459z"/>
<path d="M394.741,360.779h-0.502V287.73h0.502c5.522,0,10-4.477,10-10s-4.478-10-10-10h-18.376v-112.68h14.685
	c4.045,0,7.691-2.437,9.239-6.173c1.547-3.736,0.691-8.038-2.168-10.898L263.071,2.929c-3.906-3.906-10.236-3.906-14.143,0
	l-135.05,135.049c-2.859,2.86-3.715,7.162-2.168,10.898c1.548,3.737,5.194,6.173,9.239,6.173h14.685v112.68h-18.376
	c-5.522,0-10,4.477-10,10s4.478,10,10,10h0.502v73.049h-0.502c-5.522,0-10,4.477-10,10s4.478,10,10,10h18.376V502
	c0,5.523,4.478,10,10,10h220.73c5.522,0,10-4.477,10-10V380.779h18.376c5.522,0,10-4.477,10-10S400.263,360.779,394.741,360.779z
	 M374.239,360.779h-57.383V287.73h57.383V360.779z M215.143,360.779V287.73h81.713v73.049L215.143,360.779L215.143,360.779z
	 M225.306,267.73H189.84v-35.483c0-9.778,7.955-17.734,17.733-17.734s17.733,7.956,17.733,17.734V267.73z M322.16,267.73h-35.467
	v-35.483c0-9.778,7.955-17.734,17.733-17.734s17.733,7.956,17.733,17.734v35.483H322.16z M158.678,121.463h107.464
	c5.522,0,10-4.477,10-10s-4.478-10-10-10h-87.464L256,24.142l110.907,110.907H145.093L158.678,121.463z M155.635,155.049h200.73
	v112.68H342.16v-35.483c0-20.807-16.927-37.734-37.733-37.734s-37.733,16.927-37.733,37.734v35.483h-21.387v-35.483
	c0-20.807-16.927-37.734-37.733-37.734s-37.733,16.927-37.733,37.734v35.483h-14.205v-112.68H155.635z M137.76,287.73h57.383v73.049
	H137.76V287.73z M155.635,466.332h55.651V492h-55.651V466.332z M231.286,444.264c0-13.627,11.087-24.713,24.714-24.713
	c13.627,0,24.714,11.086,24.714,24.713V492h-49.428L231.286,444.264L231.286,444.264z M356.365,492h-55.651v-25.667h55.651V492z
	 M356.365,446.332h-55.651v-2.068c0-24.655-20.059-44.713-44.714-44.713c-24.655,0-44.714,20.058-44.714,44.713v2.068h-55.651
	v-65.553h200.73V446.332z"/>
<g>
</g>
<g>
</g>
<g>
</g>
<g>
</g>
<g>
</g>
<g>
</g>
<g>
</g>
<g>
</g>
<g>
</g>
<g>
</g>
<g>
</g>
<g>
</g>
<g>
</g>
<g>
</g>
<g>
</g>
</svg>
