<?xml version="1.0" encoding="iso-8859-1"?>
<!-- Generator: Adobe Illustrator 19.0.0, SVG Export Plug-In . SVG Version: 6.00 Build 0)  -->
<svg version="1.1" id="Capa_1" xmlns="http://www.w3.org/2000/svg" xmlns:xlink="http://www.w3.org/1999/xlink" x="0px" y="0px"
	 viewBox="0 0 512 512" style="enable-background:new 0 0 512 512;" xml:space="preserve">
<polygon style="fill:#B0DBD0;" points="413.67,160.259 413.67,351.741 394.559,370.851 345.281,420.13 329.319,436.091 
	182.681,436.091 166.719,420.13 117.441,370.851 98.33,351.741 98.33,160.259 117.441,141.149 166.719,91.87 182.681,75.909 
	329.319,75.909 345.281,91.87 394.559,141.149 "/>
<g>
	<polyline style="fill:#C6C5CA;" points="201.042,133.899 166.719,91.87 117.441,141.149 152.314,183.846 152.314,182.627 	"/>
	<polyline style="fill:#C6C5CA;" points="310.958,378.101 345.281,420.13 394.559,370.851 359.686,328.154 	"/>
	<polyline style="fill:#C6C5CA;" points="359.686,182.627 359.686,183.846 394.559,141.149 345.281,91.87 310.958,133.899 	"/>
	<polyline style="fill:#C6C5CA;" points="152.314,328.154 117.441,370.851 166.719,420.13 201.042,378.101 	"/>
</g>
<polygon style="fill:#2C7B7E;" points="359.685,182.627 359.685,329.373 306.952,382.107 205.048,382.107 167.367,344.426 
	152.314,329.373 152.314,182.627 205.048,129.893 306.952,129.893 344.426,167.367 "/>
<polygon style="fill:#F6DAB9;" points="344.426,167.367 167.367,344.426 152.314,329.373 152.314,256.423 278.844,129.893 
	306.952,129.893 "/>
<path d="M296.35,175.87c-0.649,0-1.31-0.07-1.96-0.2c-0.63-0.13-1.26-0.32-1.87-0.57c-0.6-0.25-1.18-0.56-1.72-0.92
	c-0.55-0.36-1.06-0.78-1.52-1.24c-0.461-0.46-0.881-0.98-1.25-1.52c-0.36-0.55-0.671-1.13-0.921-1.73s-0.439-1.23-0.569-1.87
	s-0.19-1.3-0.19-1.95c0-2.64,1.07-5.21,2.931-7.08c0.46-0.46,0.97-0.87,1.52-1.24c0.54-0.36,1.12-0.67,1.72-0.92
	c0.61-0.25,1.24-0.44,1.87-0.57c1.3-0.26,2.62-0.26,3.91,0c0.64,0.13,1.27,0.32,1.87,0.57c0.61,0.25,1.189,0.56,1.729,0.92
	c0.551,0.37,1.061,0.78,1.521,1.24c1.86,1.87,2.93,4.44,2.93,7.08c0,0.65-0.069,1.31-0.2,1.95c-0.13,0.64-0.319,1.27-0.569,1.87
	s-0.561,1.18-0.92,1.73c-0.36,0.54-0.78,1.06-1.24,1.52s-0.97,0.88-1.521,1.24c-0.54,0.36-1.119,0.67-1.729,0.92
	c-0.601,0.25-1.23,0.44-1.87,0.57S297,175.87,296.35,175.87z"/>
<path d="M420.741,153.188l-84.351-84.35c-1.875-1.875-4.419-2.929-7.071-2.929H182.681c-2.652,0-5.196,1.054-7.071,2.929
	l-84.35,84.351c-1.875,1.875-2.929,4.419-2.929,7.071v191.481c0,2.652,1.054,5.196,2.929,7.071l84.35,84.351
	c1.875,1.875,4.419,2.929,7.071,2.929H329.32c2.652,0,5.196-1.054,7.071-2.929l84.351-84.35c1.875-1.875,2.929-4.419,2.929-7.071
	V160.259C423.67,157.607,422.616,155.063,420.741,153.188z M403.67,347.599l-8.362,8.361l-25.623-31.371V187.411l25.623-31.371
	l8.362,8.361V347.599z M346.031,405.238l-21.608-26.459l35.062-35.062l21.609,26.457L346.031,405.238z M108.33,347.599V164.401
	l8.361-8.361l25.623,31.371v137.178l-25.623,31.371L108.33,347.599z M165.97,106.762l21.607,26.459l-35.062,35.062l-21.609-26.458
	L165.97,106.762z M381.094,141.826l-21.61,26.457l-35.062-35.062l21.608-26.459L381.094,141.826z M302.81,139.893l1.022,1.022
	c0.03,0.03,0.06,0.061,0.091,0.091l26.361,26.362L167.367,330.284l-5.053-5.052v-11.189l115.657-115.657
	c3.905-3.905,3.905-10.237,0-14.142c-3.904-3.905-10.236-3.905-14.143,0L162.314,285.757v-25.192l120.672-120.672H302.81z
	 M162.314,232.281v-45.512l45.739-45.739c0.046-0.045,0.091-0.09,0.136-0.136l1-1h45.512L162.314,232.281z M130.906,370.174
	l21.61-26.458l35.062,35.062l-21.608,26.46L130.906,370.174z M209.19,372.107l-1-1c-0.045-0.046-0.09-0.091-0.136-0.136
	l-26.544-26.544L344.427,181.51l5.259,5.259v138.463l-45.762,45.762c-0.031,0.031-0.062,0.062-0.093,0.093l-1.021,1.021
	L209.19,372.107L209.19,372.107z M186.823,85.909h138.354l6.64,6.64l-22.553,27.616c-0.751-0.179-1.527-0.272-2.312-0.272H205.048
	c-0.785,0-1.56,0.093-2.311,0.271l-22.553-27.617L186.823,85.909z M325.177,426.091H186.823l-6.639-6.639l22.553-27.617
	c0.751,0.179,1.526,0.271,2.311,0.271h101.904c0.785,0,1.56-0.093,2.312-0.272l22.553,27.616L325.177,426.091z"/>
<path d="M256,512c-5.523,0-10-4.477-10-10v-29.143c0-5.523,4.477-10,10-10c5.522,0,10,4.477,10,10V502
	C266,507.523,261.522,512,256,512z"/>
<path d="M256,49.144c-5.523,0-10-4.477-10-10V10c0-5.523,4.477-10,10-10c5.522,0,10,4.477,10,10v29.144
	C266,44.667,261.522,49.144,256,49.144z"/>
<path d="M429.948,439.948c-2.56,0-5.118-0.976-7.071-2.929l-13.535-13.536c-3.905-3.905-3.905-10.237,0-14.142
	c3.907-3.905,10.237-3.904,14.143,0l13.535,13.536c3.905,3.905,3.905,10.237,0,14.142
	C435.066,438.972,432.507,439.948,429.948,439.948z"/>
<path d="M95.587,105.587c-2.559,0-5.119-0.976-7.071-2.929L74.98,89.123c-3.905-3.905-3.905-10.237,0-14.143
	c3.905-3.905,10.237-3.905,14.143,0l13.536,13.536c3.905,3.905,3.905,10.237,0,14.143
	C100.706,104.611,98.146,105.587,95.587,105.587z"/>
<path d="M82.052,439.948c-2.559,0-5.119-0.976-7.071-2.929c-3.905-3.905-3.905-10.237,0-14.143l13.536-13.536
	c3.905-3.905,10.237-3.905,14.143,0c3.905,3.905,3.905,10.237,0,14.143L89.123,437.02C87.17,438.972,84.611,439.948,82.052,439.948z
	"/>
<path d="M416.413,105.587c-2.56,0-5.118-0.976-7.071-2.929c-3.905-3.905-3.905-10.237,0-14.142l13.535-13.536
	c3.906-3.905,10.236-3.906,14.143,0c3.905,3.905,3.905,10.237,0,14.142l-13.535,13.536
	C421.531,104.611,418.973,105.587,416.413,105.587z"/>
<path d="M39.143,266H10c-5.523,0-10-4.477-10-10s4.477-10,10-10h29.143c5.523,0,10,4.477,10,10
	C49.143,261.523,44.666,266,39.143,266z"/>
<path d="M502,266h-29.144c-5.522,0-10-4.477-10-10s4.478-10,10-10H502c5.522,0,10,4.477,10,10C512,261.523,507.522,266,502,266z"/>
<g>
</g>
<g>
</g>
<g>
</g>
<g>
</g>
<g>
</g>
<g>
</g>
<g>
</g>
<g>
</g>
<g>
</g>
<g>
</g>
<g>
</g>
<g>
</g>
<g>
</g>
<g>
</g>
<g>
</g>
</svg>
