<?xml version="1.0" encoding="iso-8859-1"?>
<!-- Generator: Adobe Illustrator 19.0.0, SVG Export Plug-In . SVG Version: 6.00 Build 0)  -->
<svg version="1.1" id="Capa_1" xmlns="http://www.w3.org/2000/svg" xmlns:xlink="http://www.w3.org/1999/xlink" x="0px" y="0px"
	 viewBox="0 0 512 512" style="enable-background:new 0 0 512 512;" xml:space="preserve">
<polyline style="fill:#A84926;" points="77.423,72.515 77.423,502 125.589,502 125.589,72.515 "/>
<g>
	<rect x="171.97" y="80.01" style="fill:#F6DAB9;" width="273.57" height="293.03"/>
	<polyline style="fill:#F6DAB9;" points="253.707,120.072 405.481,120.072 405.481,332.975 173.975,332.975 	"/>
</g>
<path d="M218.77,130.069c-0.649,0-1.31-0.06-1.96-0.189c-0.63-0.13-1.26-0.32-1.87-0.57c-0.6-0.25-1.18-0.56-1.72-0.92
	c-0.55-0.37-1.06-0.79-1.52-1.25c-0.471-0.46-0.881-0.97-1.25-1.52c-0.36-0.54-0.67-1.12-0.92-1.721
	c-0.25-0.609-0.44-1.239-0.57-1.88c-0.13-0.64-0.19-1.3-0.19-1.95c0-0.649,0.061-1.31,0.19-1.949c0.13-0.641,0.32-1.271,0.57-1.87
	c0.25-0.61,0.56-1.19,0.92-1.73c0.369-0.55,0.779-1.06,1.25-1.52c0.46-0.46,0.97-0.88,1.52-1.24c0.54-0.36,1.12-0.67,1.72-0.92
	c0.61-0.25,1.24-0.44,1.87-0.57c1.3-0.26,2.62-0.26,3.91,0c0.64,0.13,1.271,0.32,1.87,0.57s1.19,0.56,1.729,0.92
	c0.551,0.36,1.061,0.78,1.521,1.24s0.88,0.97,1.24,1.52c0.359,0.54,0.67,1.12,0.92,1.73c0.25,0.6,0.439,1.229,0.569,1.87
	c0.131,0.64,0.2,1.3,0.2,1.949c0,0.65-0.069,1.311-0.2,1.95c-0.13,0.641-0.319,1.271-0.569,1.88c-0.25,0.601-0.561,1.181-0.92,1.721
	c-0.36,0.55-0.78,1.06-1.24,1.52s-0.97,0.88-1.521,1.25c-0.539,0.36-1.13,0.67-1.729,0.92s-1.23,0.44-1.87,0.57
	S219.42,130.069,218.77,130.069z"/>
<rect x="125.59" y="80.01" style="fill:#FFC477;" width="46.38" height="293.03"/>
<path style="fill:#2C7B7E;" d="M282.25,240.03c0,30.876-15.364,50.644-15.364,50.644l28.871,12.833l28.871-12.833
	c0,0-15.364-19.768-15.364-50.644c30.879,0,50.649,15.362,50.649,15.362l12.834-28.869l-12.834-28.869
	c0,0-19.77,15.362-50.649,15.362c0-30.876,15.364-50.644,15.364-50.644l-28.871-12.832l-28.871,12.832
	c0,0,15.364,19.768,15.364,50.644c-30.879,0-50.649-15.362-50.649-15.362l-12.833,28.869l12.833,28.869
	C231.601,255.392,251.371,240.03,282.25,240.03z"/>
<path d="M295.758,313.507c-1.385,0-2.769-0.287-4.062-0.862l-28.871-12.833c-2.81-1.249-4.889-3.721-5.638-6.703
	c-0.748-2.982-0.084-6.144,1.804-8.571c0.088-0.116,9.825-13.136,12.555-33.804c-20.671,2.73-33.697,12.471-33.848,12.585
	c-2.427,1.886-5.567,2.539-8.551,1.787c-2.982-0.748-5.435-2.842-6.684-5.651l-12.834-28.868c-1.149-2.586-1.149-5.538,0-8.125
	l12.834-28.869c1.249-2.81,3.721-4.888,6.703-5.637c2.982-0.75,6.144-0.084,8.57,1.803c0.117,0.089,13.145,9.83,33.824,12.557
	c-2.704-20.878-12.456-33.659-12.57-33.806c-1.888-2.429-2.552-5.589-1.804-8.571c0.749-2.982,2.828-5.455,5.638-6.703
	l28.871-12.832c2.586-1.15,5.537-1.15,8.123,0l28.871,12.832c2.81,1.248,4.889,3.721,5.638,6.703
	c0.748,2.982,0.083,6.144-1.804,8.571c-0.088,0.116-9.825,13.137-12.556,33.804c20.671-2.73,33.697-12.471,33.848-12.585
	c2.428-1.885,5.568-2.538,8.551-1.787c2.982,0.748,5.435,2.842,6.684,5.651l12.834,28.869c1.149,2.587,1.149,5.539,0,8.125
	l-12.834,28.868c-1.249,2.81-3.721,4.888-6.703,5.637c-2.983,0.749-6.143,0.085-8.57-1.803c-0.117-0.089-13.145-9.83-33.824-12.557
	c2.704,20.878,12.457,33.659,12.571,33.806c1.887,2.428,2.552,5.589,1.804,8.571c-0.749,2.982-2.828,5.454-5.638,6.703
	l-28.871,12.833C298.526,313.22,297.143,313.507,295.758,313.507z M281.274,286.126l14.483,6.438l14.483-6.438
	c-4.973-9.782-10.977-25.796-10.977-46.097c0-5.522,4.478-10,10-10c20.304,0,36.318,6.003,46.101,10.976l6.438-14.481l-6.438-14.482
	c-9.782,4.973-25.797,10.976-46.101,10.976c-5.522,0-10-4.478-10-10c0-20.301,6.004-36.314,10.977-46.096l-14.483-6.438
	l-14.483,6.438c4.973,9.781,10.976,25.795,10.976,46.096c0,5.522-4.478,10-10,10c-20.304,0-36.318-6.003-46.101-10.976
	l-6.438,14.482l6.438,14.481c9.782-4.973,25.797-10.976,46.101-10.976c5.522,0,10,4.478,10,10
	C292.25,260.33,286.246,276.344,281.274,286.126z"/>
<circle style="fill:#FF9929;" cx="101.51" cy="45.05" r="35.05"/>
<path d="M445.546,70.009H138.994c4.777-7.15,7.564-15.735,7.564-24.96C146.559,20.209,126.348,0,101.506,0
	S56.454,20.209,56.454,45.049c0,11.239,4.137,21.53,10.969,29.43V502c0,5.522,4.478,10,10,10h48.167c5.522,0,10-4.478,10-10V383.037
	h309.956c5.522,0,10-4.478,10-10V80.009C455.546,74.486,451.068,70.009,445.546,70.009z M87.423,492V87.844
	c4.433,1.462,9.167,2.254,14.083,2.254s9.65-0.792,14.083-2.254L115.59,492H87.423z M101.506,70.099
	c-13.813,0-25.052-11.237-25.052-25.05C76.454,31.237,87.692,20,101.506,20s25.053,11.237,25.053,25.049
	S115.32,70.099,101.506,70.099z M161.972,363.037H135.59V90.009h26.382V363.037z M435.546,363.037H181.972v-20.063H405.48
	c5.522,0,10-4.478,10-10V120.071c0-5.522-4.478-10-10-10H253.707c-5.522,0-10,4.478-10,10s4.478,10,10,10H395.48v192.903H181.972
	V90.009h253.574L435.546,363.037L435.546,363.037z"/>
<g>
</g>
<g>
</g>
<g>
</g>
<g>
</g>
<g>
</g>
<g>
</g>
<g>
</g>
<g>
</g>
<g>
</g>
<g>
</g>
<g>
</g>
<g>
</g>
<g>
</g>
<g>
</g>
<g>
</g>
</svg>
