<svg height="512pt" viewBox="0 -3 512.00003 512" width="512pt" xmlns="http://www.w3.org/2000/svg"><path d="m153.773438 229.691406 103.671874-103.671875c7.160157-7.160156 18.769532-7.160156 25.929688 0l4.925781 4.925781c7.164063 7.160157 7.164063 18.769532 0 25.929688l-103.667969 103.671875c-7.164062 7.160156-18.773437 7.160156-25.933593 0l-4.925781-4.925781c-7.160157-7.160156-7.160157-18.769532 0-25.929688zm0 0" fill="#ff6d3a"/><path d="m196.9375 186.527344-43.164062 43.164062zm0 0" fill="#e6a10e"/><path d="m288.304688 130.945312-4.929688-4.925781c-7.160156-7.160156-18.769531-7.160156-25.929688 0l-17.347656 17.347657c7.160156-7.160157 18.769532-7.160157 25.929688 0l4.925781 4.925781c7.164063 7.160156 7.164063 18.769531 0 25.929687l17.351563-17.347656c7.160156-7.160156 7.160156-18.769531 0-25.929688zm0 0" fill="#db5e32"/><path d="m248.339844 299.691406s-2.5625-40.078125 37.269531-37.273437c37.910156 2.671875 26.351563-36.652344 57.875-25.792969l-67.464844-67.464844-79.105469 79.105469zm0 0" fill="#e9feff"/><path d="m276.019531 169.160156-17.914062 17.914063 59.0625 59.0625c5.695312-8.007813 10.761719-14.871094 26.320312-9.511719zm0 0" fill="#cddfe0"/><path d="m501.660156 394.796875-158.171875-158.171875c-31.527343-10.859375-19.96875 28.460938-57.875 25.792969-39.835937-2.804688-37.273437 37.273437-37.273437 37.273437 84.738281 84.738282 78.09375 78.117188 79.875 79.820313 18.585937 17.796875 29.433594 42.175781 29.433594 67.910156v1.394531c0 12.710938 10.304687 23.015625 23.015624 23.015625 11.046876 0 20.535157-7.847656 22.605469-18.699219l2.855469-14.976562c1.722656-9.015625 9.824219-16.058594 20.457031-15.351562 9.910157.65625 17.550781 9.011718 17.550781 18.941406v35.242187c0 11.613281 9.414063 21.027344 21.023438 21.027344 11.613281 0 21.027344-9.414063 21.027344-21.027344v-47.980469c0-7.792968 4.609375-15.128906 12.425781-18.441406 6.3125-2.695312 7.902344-10.917968 3.050781-15.769531zm0 0" fill="#ff4c4c"/><path d="m501.660156 394.796875-158.171875-158.171875c-18.734375-6.453125-22.253906 4.816406-29.984375 14.460938 3.558594-1.015626 8.066406-.8125 14.214844 1.304687l158.175781 158.171875c2.632813 2.636719 3.355469 6.265625 2.464844 9.464844 2.082031-4.078125 5.589844-7.488282 10.25-9.460938 6.3125-2.695312 7.902344-10.917968 3.050781-15.769531zm0 0" fill="#d43f3f"/><path d="m133.285156 23.332031c-21.117187-21.117187-55.339844-21.179687-76.53125-.132812l-41.46875 41.179687c-10.566406 10.871094-10.441406 28.214844.277344 38.929688l2.546875 2.546875c11.933594 11.933593 26.132813 7.03125 30.449219 7.292969 18.964844-1.628907 39.644531 16.675781 34.738281 39.992187-1.875 8.90625.644531 18.546875 7.558594 25.464844 6.914062 6.914062 16.558593 9.429687 25.460937 7.558593 10.46875-2.203124 21.359375.605469 28.925782 8.171876l21.941406 21.941406 79.523437-79.523438c-12.507812-12.511718-105.457031-105.457031-113.421875-113.421875zm0 0" fill="#9e5015"/><path d="m37.601562 42.351562c21.191407-21.046874 55.414063-20.984374 76.53125.132813 7.964844 7.964844 100.910157 100.910156 113.425782 113.421875l19.152344-19.152344c-12.511719-12.511718-105.460938-105.457031-113.425782-113.421875-21.117187-21.117187-55.339844-21.179687-76.53125-.132812l-41.46875 41.179687c-.414062.429688-.808594.871094-1.191406 1.316406zm0 0" fill="#854312"/><path d="m506.964844 389.492188c-9.285156-9.28125-207.261719-207.261719-220.335938-220.332032l6.980469-6.980468c10.070313-10.074219 10.070313-26.464844-.003906-36.539063l-4.925781-4.925781c-10.074219-10.070313-26.464844-10.074219-36.539063 0l-5.433594 5.433594-46.90625-46.910157c-2.933593-2.929687-7.679687-2.929687-10.609375 0-2.929687 2.929688-2.929687 7.679688 0 10.605469l46.910156 46.910156-68.914062 68.917969-16.640625-16.640625c-9.175781-9.175781-22.542969-12.992188-35.773437-10.207031-14.394532 3.023437-27.171876-9.699219-24.136719-24.136719 5.886719-27.964844-18.285157-51.09375-42.71875-49.011719-4.523438-.199219-15.453125 3.925781-24.503907-5.121093l-2.546874-2.546876c-7.757813-7.761718-7.863282-20.46875-.242188-28.359374l41.414062-41.125c18.214844-18.089844 47.792969-18.035157 65.945313.113281l37.644531 37.644531c2.929688 2.929688 7.679688 2.929688 10.605469 0 2.929687-2.929688 2.929687-7.679688 0-10.609375l-37.644531-37.644531c-23.976563-23.976563-63.058594-24.042969-87.121094-.152344-50.558594 50.210938-40.160156 39.808594-41.558594 41.277344-13.347656 13.730468-13.191406 35.921875.351563 49.460937 1.167969.792969 11.269531 14.386719 30.46875 12.738281 4.503906.230469 16.707031-4.214843 26.925781 6.003907.507812.8125 11.566406 8.730469 8.300781 24.242187-5.277343 25.082032 16.960938 47.15625 41.90625 41.90625 8.242188-1.738281 16.496094.558594 22.074219 6.136719l16.640625 16.636719-8.109375 8.109375c-10.070312 10.074219-10.070312 26.464843 0 36.539062 3.0625 2.347657 9.164062 12.492188 23.199219 12.492188 14.636719 0 20.78125-11.003907 25.246093-14.542969 5.042969 5.042969 61.113282 61.113281 72.828126 72.828125 2.929687 2.929687 7.679687 2.929687 10.609374 0 2.929688-2.929687 2.929688-7.679687 0-10.605469l-24.503906-24.503906c.164063-3.664062.859375-7.679688 2.109375-11.214844 5.835938-16.53125 18.714844-15.332031 31.15625-15.332031 20.25 0 28.460938-11.539063 34.003907-19.335937 5.410156-7.609376 7.453124-10.230469 16.339843-7.507813 167.65625 168.566406 159.960938 156.945313 156.089844 160.511719-10.246094 4.359375-16.863281 14.285156-16.863281 25.292968v47.980469c0 7.460938-6.070313 13.527344-13.527344 13.527344s-13.523438-6.066406-13.523438-13.527344v-35.242187c0-13.910156-10.785156-25.515625-24.542968-26.425782l-.34375-.023437c-13.464844-.925781-25.476563 8.304687-27.988282 21.453125l-2.855468 14.976562c-1.394532 7.304688-7.804688 12.605469-15.242188 12.605469-8.550781 0-15.511718-6.960937-15.511718-15.515625-.179688-.867187 2.871093-41.578125-31.746094-74.71875-2.101563-2.015625-.699219-.667968-29.484375-29.4375-2.933594-2.929687-7.679688-2.929687-10.609375 0-2.929688 2.929688-2.929688 7.679688 0 10.609375 28.378906 28.359375 27.386718 27.425781 29.71875 29.660157 29.648437 28.386718 26.960937 63.125 27.121094 63.886718 0 16.828125 13.6875 30.515625 30.515624 30.515625 14.625 0 27.230469-10.425781 29.972657-24.792969l2.859375-14.976562c1.089844-5.703125 6.34375-9.699219 12.234375-9.296875l.359375.023437c5.910156.390626 10.542968 5.421876 10.542968 11.457032v35.242187c0 15.730469 12.796876 28.527344 28.523438 28.527344 15.730469 0 28.527344-12.796875 28.527344-28.527344v-47.980469c0-8.570312 7.769531-11.460937 7.867187-11.542968 11.175781-4.769532 14.03125-19.355469 5.414063-27.972656zm-342.960938-134.25-4.925781-4.925782c-4.226563-4.222656-4.226563-11.097656 0-15.324218 11.988281-11.988282 92.753906-92.753907 103.667969-103.667969 2.113281-2.113281 4.890625-3.171875 7.664062-3.171875 6.554688 0 9.011719 5.144531 12.589844 8.097656 4.222656 4.222656 4.222656 11.097656 0 15.320312-31.777344 31.777344-71.96875 71.96875-103.671875 103.671876-4.234375 4.234374-11.085937 4.238281-15.324219 0zm122.132813-.308594c-23.511719-1.652344-38.179688 9.945312-43.308594 28.636718l-35.308594-35.304687 68.5-68.5 49.0625 49.058594c-17.144531 6.933593-13.605469 27.890625-38.945312 26.109375zm0 0"/></svg>