<?xml version="1.0" encoding="iso-8859-1"?>
<!-- Generator: Adobe Illustrator 19.0.0, SVG Export Plug-In . SVG Version: 6.00 Build 0)  -->
<svg version="1.1" id="Capa_1" xmlns="http://www.w3.org/2000/svg" xmlns:xlink="http://www.w3.org/1999/xlink" x="0px" y="0px"
	 viewBox="0 0 512 512" style="enable-background:new 0 0 512 512;" xml:space="preserve">
<path style="fill:#FFC477;" d="M297.849,74.122C300.514,68.298,302,62.823,302,56c0-25.405-20.595-46-46-46s-46,20.595-46,46
	c0,6.823,1.486,12.298,4.151,18.122"/>
<path style="fill:#FF9929;" d="M469.684,314.403C456.014,420.237,365.555,502,256,502c-119.001,0-215.47-96.469-215.47-215.47
	S136.999,71.06,256,71.06s215.47,96.469,215.47,215.47C471.47,295.976,470.862,305.279,469.684,314.403"/>
<path style="fill:#F6DAB9;" d="M133.081,409.449c-67.777-67.777-67.777-178.06,0-245.837s178.06-67.777,245.837,0
	s67.777,178.06,0,245.837S200.859,477.226,133.081,409.449z"/>
<polygon style="fill:#FF6243;" points="318.451,224.034 224.94,250.984 199.755,345.393 317.481,227.667 "/>
<polygon style="fill:#F24141;" points="292.297,322.076 317.481,227.667 199.755,345.393 198.786,349.027 "/>
<path d="M256,470.282c-49.156,0-95.321-19.093-129.989-53.762l0,0c-71.676-71.678-71.676-188.304,0-259.98
	c34.668-34.669,80.833-53.762,129.989-53.762s95.321,19.093,129.989,53.762c71.676,71.677,71.677,188.303,0,259.98
	C351.321,451.189,305.156,470.282,256,470.282z M140.153,402.378c30.891,30.892,72.033,47.904,115.847,47.904
	s84.956-17.013,115.847-47.904c63.878-63.879,63.878-167.817,0-231.695c-30.891-30.892-72.033-47.904-115.847-47.904
	s-84.956,17.013-115.847,47.904C76.274,234.561,76.274,338.499,140.153,402.378L140.153,402.378z"/>
<path d="M349.48,203.05c-0.65,0-1.31-0.06-1.96-0.19c-0.63-0.13-1.26-0.319-1.87-0.569c-0.6-0.25-1.18-0.561-1.72-0.92
	c-0.55-0.37-1.06-0.79-1.53-1.25c-0.46-0.46-0.87-0.971-1.24-1.521c-0.36-0.54-0.67-1.12-0.92-1.72c-0.25-0.601-0.44-1.23-0.57-1.87
	c-0.13-0.65-0.19-1.3-0.19-1.96c0-0.65,0.06-1.3,0.19-1.95c0.13-0.64,0.32-1.27,0.57-1.87c0.25-0.609,0.56-1.189,0.92-1.729
	c0.37-0.55,0.78-1.061,1.24-1.521c0.47-0.46,0.98-0.88,1.53-1.239c0.54-0.36,1.12-0.671,1.72-0.921c0.61-0.25,1.24-0.439,1.87-0.569
	c1.29-0.26,2.62-0.26,3.91,0c0.64,0.13,1.27,0.319,1.87,0.569c0.61,0.25,1.19,0.561,1.73,0.921c0.55,0.359,1.06,0.779,1.52,1.239
	s0.88,0.971,1.24,1.521c0.36,0.54,0.67,1.12,0.92,1.729c0.25,0.601,0.44,1.23,0.57,1.87c0.13,0.65,0.2,1.3,0.2,1.95
	c0,0.66-0.07,1.31-0.2,1.96c-0.13,0.64-0.32,1.27-0.57,1.87c-0.25,0.6-0.56,1.18-0.92,1.72c-0.36,0.55-0.78,1.061-1.24,1.521
	s-0.97,0.88-1.52,1.25c-0.54,0.359-1.12,0.67-1.73,0.92c-0.6,0.25-1.23,0.439-1.87,0.569C350.79,202.99,350.13,203.05,349.48,203.05
	z"/>
<path d="M415.431,127.099c-29.383-29.382-65.447-49.657-104.767-59.404C311.573,63.882,312,60.063,312,56c0-30.879-25.122-56-56-56
	s-56,25.121-56,56c0,4.063,0.427,7.882,1.336,11.695c-39.32,9.747-75.384,30.021-104.767,59.404
	C53.983,169.685,30.53,226.305,30.53,286.53s23.453,116.846,66.039,159.432C139.154,488.547,195.775,512,256,512
	c55.131,0,108.199-20.109,149.429-56.624c40.871-36.197,67.212-85.807,74.172-139.691c1.24-9.598,1.869-19.406,1.869-29.154
	C481.47,226.305,458.017,169.685,415.431,127.099z M220,56c0-19.851,16.149-36,36-36s36,16.149,36,36
	c0,2.739-0.296,5.214-0.963,7.75c-11.487-1.781-23.192-2.689-35.037-2.689s-23.55,0.907-35.037,2.689
	C220.296,61.214,220,58.739,220,56z M459.766,313.122C446.594,415.1,358.994,492,256,492c-113.296,0-205.47-92.174-205.47-205.47
	S142.704,81.061,256,81.061s205.47,92.174,205.47,205.47C461.47,295.425,460.896,304.371,459.766,313.122z"/>
<path d="M342.406,372.936c-23.04,23.04-53.726,35.729-86.406,35.729s-63.366-12.689-86.406-35.729
	c-23.04-23.039-35.729-53.726-35.729-86.405s12.689-63.366,35.729-86.406c38.214-38.213,97.987-46.704,145.359-20.646
	c4.839,2.661,10.92,0.896,13.582-3.941c2.662-4.84,0.897-10.92-3.942-13.582c-26.437-14.543-57.571-20.328-87.664-16.285
	c-31.108,4.178-59.282,18.117-81.477,40.312c-26.817,26.818-41.586,62.526-41.586,100.549c0,38.021,14.769,73.73,41.586,100.548
	c26.818,26.817,62.526,41.587,100.548,41.587s73.73-14.77,100.548-41.587c3.905-3.905,3.905-10.237,0-14.143
	C352.643,369.031,346.311,369.031,342.406,372.936z"/>
<path d="M327.144,230.244l0.969-3.634c0.929-3.482-0.088-7.195-2.662-9.719c-2.574-2.522-6.304-3.465-9.77-2.468l-47.063,13.564
	v-23.616c0-5.522-4.477-10-10-10s-10,4.478-10,10v29.38l-22.229,6.406l-34.803-34.803c-3.906-3.903-10.237-3.904-14.142,0
	c-3.905,3.905-3.906,10.237,0,14.143l35.954,35.955l-5.652,21.189c-0.489-0.073-0.989-0.112-1.499-0.112H176.46
	c-5.523,0-10,4.478-10,10s4.477,10,10,10h25.98l-12.339,46.256c-0.003,0.01-0.005,0.019-0.008,0.029l-0.969,3.633
	c-0.929,3.482,0.088,7.196,2.662,9.719c1.896,1.858,4.419,2.859,7.001,2.859c0.924,0,1.855-0.128,2.769-0.391l47.063-13.564v23.617
	c0,5.522,4.477,10,10,10c5.523,0,10-4.478,10-10v-29.381l22.229-6.406l34.804,34.804c1.953,1.952,4.512,2.929,7.071,2.929
	c2.559,0,5.119-0.977,7.071-2.929c3.905-3.905,3.906-10.237,0-14.143l-35.954-35.955l5.652-21.189
	c0.489,0.073,0.989,0.112,1.498,0.112h29.787c5.523,0,10-4.478,10-10s-4.477-10-10-10h-25.98L327.144,230.244z M287.705,243.301
	L255.9,275.106l-36.885,36.885l14.129-52.965L287.705,243.301z M229.534,329.757l68.688-68.688l-14.128,52.964L229.534,329.757z"/>
<g>
</g>
<g>
</g>
<g>
</g>
<g>
</g>
<g>
</g>
<g>
</g>
<g>
</g>
<g>
</g>
<g>
</g>
<g>
</g>
<g>
</g>
<g>
</g>
<g>
</g>
<g>
</g>
<g>
</g>
</svg>
