<svg height="512pt" viewBox="-6 0 512 512.0001" width="512pt" xmlns="http://www.w3.org/2000/svg"><g fill="#5aa096"><path d="m183.003906 47-33-37c-16.339844 16.019531-18.660156 34.6875-7 56zm0 0"/><path d="m291.808594 95.253906 25.496094-42.519531c-20.15625-10.832031-38.671876-7.488281-55.546876 9.992187zm0 0"/><path d="m311.257812 148.835938 50.746094-7.835938c-15-42-43.765625-48.101562-67-41zm0 0"/><path d="m241.5 59.378906 6.4375-49.15625c-22.800781-1.90625-38.449219 8.539063-46.960938 31.296875zm0 0"/></g><path d="m300.410156 175.3125c12.402344-69.84375-18.753906-120.128906-81.308594-131.238281-41.089843-7.296875-79.867187 19.222656-100.039062 36.457031-.027344.023438-.066406.015625-.085938-.015625l-4.652343-7.628906c0-.003907 0-.003907 0-.003907-11.308594-22.039062-39.066407-29.65625-60.035157-16.472656l-12.585937 7.90625c-6.617187 4.160156-11.875 10.167969-15.121094 17.277344l-13.679687 29.96875c-4.886719 10.695312-3.519532 23.207031 3.550781 32.597656.015625.019532.039063.027344.058594.023438l41.070312-8.910156c.042969-.007813.078125.03125.066407.074218l-10.347657 35.515625c-.011719.046875.035157.085938.082031.066407l17.628907-6.457032c27.671875-10.128906 52.742187-26.289062 73.394531-47.304687 1.140625-1.160157 1.800781-1.832031 1.800781-1.832031-.011719-.023438-.007812-.054688.011719-.070313 12.757812-11.78125 43.730469-36.808594 71.890625-31.804687 51.265625 9.101562 54.898437 51.171874 48.917969 84.855468-2.972656 16.730469-19.78125 35.050782-36.03125 52.769532-21.066406 22.960937-42.851563 46.707031-41.453125 75.050781.753906 15.363281 8.289062 29.554687 22.386719 42.171875 2.875 2.574218 6.285156 4.160156 9.820312 4.789062 5.972656 1.058594 12.300781-.617187 17.003906-4.921875 8.742188-8 8.324219-21.980469-.449218-29.945312-5.640626-5.117188-8.601563-9.847657-8.8125-14.058594-.574219-11.652344 16.1875-29.925781 30.976562-46.046875 19.1875-20.914062 40.933594-44.621094 45.941406-72.8125zm0 0" fill="#c1ee92"/><path d="m370.082031 452s80 .769531 100.921875-46c-7.382812 39.386719-24.613281 96-100.921875 96zm0 0" fill="#c1ee92"/><path d="m198.613281 303.507812-13.300781-47.761718c-21.730469 7.167968-32.046875 30.898437-30.980469 55.171875zm0 0" fill="#fabe50"/><path d="m351.394531 153.34375-11.570312-48.207031c22.476562-4.289063 43.019531 11.445312 53.875 33.183593zm0 0" fill="#fabe50"/><path d="m274.179688 229.0625-38.308594-31.472656c15.339844-16.980469 41.21875-16.820313 62.988281-6.035156zm0 0" fill="#fabe50"/><path d="m312.488281 182.933594-27.664062-41.140625c19.566406-11.863281 44.3125-4.285157 62.066406 12.296875zm0 0" fill="#fabe50"/><path d="m489.988281 188.503906-8.238281-31.917968c-1.949219-7.558594-6.070312-14.378907-11.847656-19.625l-11.019532-10c-18.34375-16.644532-47.007812-13.996094-61.992187 5.722656 0 0-19.234375 13.289062-22.636719 13.992187-1.367187.285157-33.832031 7.230469-62.597656 32.109375-27.003906 23.355469-55.964844 66.957032-40.617188 142.058594.023438.117188.085938.34375.085938.34375s-15.054688-9.347656-20.242188-11.570312c-34.152343-14.636719-74.488281-4.917969-98.109374.667968l-7.269532-17.90625c-7.605468-23.574218-33.777344-35.566406-56.597656-25.9375l-13.707031 5.785156c-7.191407 3.035157-13.339844 8.109376-17.683594 14.59375l-18.34375 27.382813c-6.550781 9.78125-7.214844 22.363281-1.730469 32.777344l42.097656-2.175781-16.027343 33.585937 84.789062-25.414063c.03125-.007812.0625-.015624.09375-.027343.011719 0 .023438-.003907.03125-.007813l7.21875-2.164062c19.046875-5.183594 55.910157-11.734375 80.777344-2.078125-7.210937 11.007812-11.417969 24.15625-11.417969 38.300781h140c0-33.320312-23.285156-61.179688-54.460937-68.25.183593-1.929688.09375-3.917969-.316407-5.917969-9.089843-44.480469-.160156-79.089843 26.539063-102.867187 13.144531-11.703125 27.75-18.214844 36.832031-21.449219l72.164063 52.484375-4-37 39 16c8.625-8.007812 12.167969-20.101562 9.226562-31.496094zm0 0" fill="#5aa096"/><path d="m365.003906 442h-140c-16.566406 0-30 13.429688-30 30 0 16.566406 13.433594 30 30 30h140c16.570313 0 30-13.429688 30-30 0-16.566406-13.429687-30-30-30zm0 0" fill="#5aa096"/><path d="m350.003906 382h-110c-16.566406 0-30 13.429688-30 30 0 16.566406 13.433594 30 30 30h110c16.570313 0 30-13.429688 30-30 0-16.566406-13.429687-30-30-30zm0 0" fill="#c1ee92"/><path d="m445.90625 155.425781-5-3c-4.738281-2.84375-10.878906-1.308593-13.722656 3.429688-2.839844 4.738281-1.304688 10.878906 3.433594 13.71875l5 3c1.609374.96875 3.382812 1.429687 5.132812 1.429687 3.398438 0 6.710938-1.730468 8.585938-4.855468 2.839843-4.738282 1.304687-10.878907-3.429688-13.722657zm0 0"/><path d="m67.9375 84.480469-6 2c-5.238281 1.746093-8.070312 7.410156-6.324219 12.648437 1.398438 4.191406 5.296875 6.839844 9.484375 6.839844 1.046875 0 2.117188-.164062 3.164063-.515625l6-2c5.242187-1.746094 8.070312-7.410156 6.324219-12.648437-1.746094-5.238282-7.410157-8.070313-12.648438-6.324219zm0 0"/><path d="m96.285156 296.734375-6 2c-5.242187 1.746094-8.074218 7.410156-6.328125 12.648437 1.398438 4.191407 5.300781 6.839844 9.488281 6.839844 1.046876 0 2.113282-.167968 3.164063-.515625l6-2c5.238281-1.746093 8.070313-7.410156 6.324219-12.648437-1.75-5.242188-7.414063-8.070313-12.648438-6.324219zm0 0"/><path d="m499.671875 186.003906-8.238281-31.914062c-2.441406-9.472656-7.566406-17.957032-14.8125-24.535156l-11.019532-10c-10.8125-9.808594-25.355468-14.667969-39.894531-13.324219-11.789062 1.085937-22.820312 6.195312-31.285156 14.277343-14.234375-18.980468-34.535156-28.671874-54.878906-25.464843-1.160157-.683594-2.332031-1.335938-3.535157-1.929688-8.617187-4.234375-18.078124-6.085937-27.921874-5.554687l17.792968-29.679688c1.40625-2.34375 1.792969-5.164062 1.066406-7.796875-.726562-2.636719-2.5-4.859375-4.90625-6.15625-21.207031-11.394531-41.792968-9.609375-60.046874 5.050781-2.722657-1.601562-5.550782-3.078124-8.457032-4.464843l4.320313-32.992188c.355469-2.710937-.414063-5.449219-2.132813-7.574219-1.714844-2.128906-4.226562-3.460937-6.953125-3.6875-25.734375-2.152343-44.78125 9.34375-55.332031 33.28125-2.671875.316407-5.320312.726563-7.933594 1.238282l-28.035156-31.433594c-1.820312-2.039062-4.394531-3.2460938-7.128906-3.3359375-2.742188-.1054687-5.382813.9374995-7.332032 2.8515625-16.75 16.414063-21.375 35.992187-13.691406 57.136719-2.683594 1.867187-5.234375 3.730468-7.621094 5.554687-6.871093-11.59375-18.058593-20.171875-31.117187-23.753906-14.082031-3.867187-29.25-1.625-41.609375 6.144531l-12.585938 7.910156c-8.292968 5.214844-14.828124 12.679688-18.894531 21.589844l-13.683593 29.96875c-6.414063 14.046875-4.625 30.433594 4.664062 42.765625.03125.042969.0625.085938.09375.125 2.359375 3.035157 6.3125 4.472657 10.070312 3.65625l24.742188-5.367187-5.671875 19.472656c-1.109375 3.8125.128906 7.929688 3.160156 10.496094 2.761719 2.335937 6.601563 2.988281 9.957031 1.761718l17.632813-6.457031c28.875-10.570312 55.53125-27.753906 77.089844-49.6875 8.390625-8.542969 18.46875-15.964843 28.882812-21.847656 10.664063-6.023437 23.460938-11.238281 35.9375-9.023437 19.738281 3.503906 32.3125 12.398437 38.4375 27.1875 4.902344 11.851562 5.707031 27.355468 2.382813 46.078124-.644532 3.613282-2.246094 7.511719-4.515625 11.578126-6.914063 2.832031-13.105469 7.082031-18.214844 12.738281-1.832031 2.027343-2.753906 4.71875-2.550781 7.445312.132812 1.789063.75 3.484375 1.75 4.933594-3.320313 3.746094-6.722656 7.457031-10.023438 11.058594-9.386718 10.230469-19.320312 21.058593-27.382812 32.734375-.074219-.042969-.144532-.09375-.222656-.132813-2.410157-1.289062-5.246094-1.53125-7.839844-.675781-14.875 4.90625-26.191406 16.34375-32.449219 31.671875-5.375-8.691406-13.230469-15.730469-22.65625-20.050781-13.273437-6.082032-28.601563-6.316406-42.058594-.640625l-13.707031 5.785156c-9.015625 3.804687-16.660156 10.109375-22.105469 18.242187l-18.34375 27.382813c-8.601562 12.847656-9.472656 29.324219-2.265625 43.003906 1.816406 3.449219 5.476563 5.519531 9.363282 5.328125l25.320312-1.3125-8.792969 18.425782c-1.703125 3.570312-1.144531 7.808593 1.429688 10.8125 2.574219 3.003906 6.679687 4.210937 10.464843 3.074218l84.746094-25.398437c.082032-.023438.164063-.046875.246094-.074219l7.019531-2.105469c19.015625-5.160156 43.953125-8.710937 63.277344-5.367187-3.535156 8.085937-5.675781 16.710937-6.382813 25.5625-9.292968 7.328125-15.28125 18.679687-15.28125 31.410156 0 8.929688 2.941407 17.183594 7.90625 23.847656-13.527343 6.421875-22.90625 20.210938-22.90625 36.152344 0 22.054688 17.945313 40 40 40h140c3.570313 0 63 0 89.292969-37.109375 15.425781-21.769531 22.761719-46.914063 26.535157-67.046875.933593-4.984375-2.007813-9.875-6.84375-11.386719-4.835938-1.511719-10.042969.832031-12.113282 5.460938-12.082031 27.007812-48.996094 35.816406-72.144531 38.691406-2.347656-1.855469-4.902344-3.464844-7.632813-4.761719 4.964844-6.664062 7.90625-14.917968 7.90625-23.847656 0-12.722656-5.976562-24.070312-15.265624-31.398438-1.292969-15.984374-7.386719-31.355468-17.5-43.855468-9.675782-11.964844-22.679688-20.914063-37.171876-25.710938-.015624-.066406-.027343-.136718-.042968-.203125-8.324219-40.738281-.457032-72.160156 23.390625-93.398437 9.699219-8.632813 20.304687-14.195313 28.6875-17.636719l67.777343 49.292969c3.199219 2.324218 7.46875 2.546875 10.890626.5625 3.425781-1.980469 5.355468-5.792969 4.933593-9.726563l-2.195312-20.296875 23.457031 9.625c3.609375 1.476563 7.742188.726563 10.601562-1.925781 11.324219-10.519531 15.964844-26.355469 12.101563-41.324219zm-96.894531 272.894532c14.847656-2.65625 32.414062-7.570313 47.589844-16.683594-8.824219 20.609375-23.222657 37.84375-48.585938 45.507812 2.074219-4.832031 3.222656-10.144531 3.222656-15.722656 0-4.589844-.796875-8.992188-2.226562-13.101562zm-24.171875-326.066407c-.285157.179688-20.082031 7.367188-20.082031 7.367188l-6.082032-25.34375c10.652344 1.84375 19.675782 9.304687 26.164063 17.976562zm-47.011719-19.140625 4.941406 20.589844c-7.234375-3.949219-14.710937-6.507812-22.121094-7.625l-6.339843-19.054688c7.230469-.558593 15.5625.664063 23.519531 6.089844zm-.5625 40.648438-16.449219 13.789062-14.542969-21.628906c10.703126-2.007812 21.847657 1.90625 30.992188 7.839844zm-28.300781-96.746094-10.878907 18.144531c-3.839843-5.207031-8.152343-9.984375-12.914062-14.316406 7.621094-4.710937 15.4375-5.972656 23.792969-3.828125zm-66.222657-37.109375-2.207031 16.847656c-4.339843-1.226562-8.8125-2.28125-13.449219-3.101562-1.566406-.28125-3.125-.496094-4.679687-.6875 5.117187-7.402344 11.796875-11.695313 20.335937-13.058594zm-86.203124 4.875 13.972656 15.664063c-6.101563 2.382812-11.933594 5.148437-17.417969 8.125-2.210937-8.652344-1.078125-16.46875 3.445313-23.789063zm63.554687 48.253906c-3.128906-.554687-6.261719-.8125-9.386719-.8125-28.4375 0-56.179687 21.394531-71.042968 35.121094-10.609376 9.796875-20.683594 19.433594-32.824219 27.441406-5.980469 3.945313-12.179688 7.554688-18.566407 10.800781-3.605468 1.835938-19.132812 6.882813-19.632812 8.613282 0 0 4.851562-16.660156 4.859375-16.683594 2.042969-7.015625-4.46875-14.175781-11.800781-12.59375l-33.960938 7.367188c-2.128906-5.472657-2.015625-11.652344.496094-17.152344l13.679688-29.964844c2.445312-5.351562 6.367187-9.835938 11.347656-12.964844l12.585937-7.910156c7.738281-4.867188 16.855469-6.210938 25.671875-3.792969 12.878906 3.53125 18.683594 14.019531 25.183594 24.683594 3.160156 5.183594 10.492188 6.292969 15.089844 2.367187 18.285156-15.617187 54.523437-40.828124 91.796875-34.210937 42.621093 7.566406 68.648437 34.242187 74.492187 74.015625-4.238281 1.203125-8.335937 2.957031-12.207031 5.300781-2.335937 1.417969-3.992187 3.730469-4.582031 6.402344-.589844 2.667969-.058594 5.460937 1.46875 7.730469l14.738281 21.917968c-.21875 1.417969-.445313 2.839844-.699219 4.273438-.21875 1.226562-.488281 2.445312-.78125 3.660156-6.71875-2.03125-13.378906-3.097656-19.8125-3.226562.359375-1.308594.667969-2.617188.898438-3.929688 4.003906-22.539062 2.792968-41.789062-3.59375-57.222656-8.820313-21.304688-26.792969-34.503906-53.417969-39.230469zm69.875 122.734375-11.796875 17.929688-20.140625-16.546875c9.679687-4.988281 21.472656-4.441407 31.9375-1.382813zm-51.363281 31.488282c3.511718-3.832032 7.039062-7.691407 10.476562-11.574219l15.460938 12.703125c-3.730469 4.242187-7.519532 8.378906-11.210938 12.398437-19.496094 21.253907-32.636718 36.605469-33.566406 50.589844-2.601562-.070313-5.191406-.078125-7.761719-.015625l-6.078125-21.835938c7.332032-14.601562 20.125-28.582031 32.679688-42.265624zm25.566406 74.09375c-1.179688-.613282-2.242188-1.128907-3.113281-1.503907-6.957031-2.980469-14.085938-5.042969-21.246094-6.394531-.078125-.230469-.097656-.351562-.097656-.355469-.03125-.691406.179687-4.667969 7.769531-14.894531 4.714844-6.347656 10.769531-13.148438 16.90625-19.871094-1.699219 12.957032-1.945312 27.246094-.21875 43.019532zm-78.933594-31.5625 6.46875 23.238281c-7.234375.980469-14.089844 2.273437-20.375 3.613281 1.652344-10.214844 5.902344-20.394531 13.90625-26.851562zm206 201.632812c0 11.027344-8.96875 20-20 20h-140c-11.027344 0-20-8.972656-20-20s8.972656-20 20-20h140c11.03125 0 20 8.972656 20 20zm-15-60c0 11.027344-8.96875 20-20 20h-110c-11.027344 0-20-8.972656-20-20s8.972656-20 20-20h110c11.03125 0 20 8.972656 20 20zm107.789063-204.023438-32.234375-13.226562c-3.265625-1.339844-6.988282-.863281-9.804688 1.257812-2.820312 2.117188-4.316406 5.5625-3.933594 9.066407l1.574219 14.566406-53.914062-39.210937c-2.671875-1.941407-6.125-2.441407-9.238281-1.332032-10.527344 3.75-26.03125 10.851563-40.128907 23.402344-29.554687 26.316406-39.539062 64.113281-29.683593 112.335938.199218.976562.253906 1.972656.15625 2.964843-.476563 5.007813 2.839843 9.59375 7.746093 10.703125 22.492188 5.101563 39.425781 22.144532 44.835938 43.632813-1.046875-.082031-2.097657-.136719-3.164063-.136719h-110c-1.046875 0-2.078125.054688-3.105468.132812 1.617187-6.34375 4.253906-12.40625 7.886718-17.953124 1.652344-2.523438 2.082032-5.660157 1.160156-8.53125-.921874-2.875-3.089843-5.179688-5.902343-6.269532-30.816407-11.96875-74.402344-1.6875-87.023438 1.75-.082031.023438-.164062.046875-.242187.070313l-7.222656 2.164062c-.019532.003907-.042969.011719-.0625.019531-.023438.007813-.039063.011719-.0625.015626l-63.175782 18.933593 6.3125-13.222656c1.515625-3.179687 1.25-6.925781-.707031-9.855469-1.960937-2.933594-5.320313-4.617187-8.835937-4.4375l-34.800782 1.800782c-1.21875-5.742188-.109375-11.824219 3.253906-16.847657l18.34375-27.382812c3.269532-4.878907 7.855469-8.664063 13.261719-10.945313l13.710938-5.785156c8.421875-3.554688 17.636719-3.414062 25.949219.394531 8.3125 3.808594 14.433593 10.699219 17.242187 19.398438.074219.234375.160156.464843.253906.691406l7.269531 17.910156c1.855469 4.566407 6.765626 7.101563 11.566407 5.96875l.5625-.132812c22.609375-5.347657 60.453125-14.300781 91.308593-1.078125 3.09375 1.328125 12.917969 7.160156 18.902344 10.875 3.484375 2.164062 7.929688 1.964844 11.222656-.476563 3.273438-2.425781 4.742188-6.605469 3.726563-10.542969-14.296875-70.25 12.441406-110.726562 37.398437-132.3125 26.832032-23.207031 57.777344-29.816406 58.085938-29.882812 1.75-.359375 27.929688-16.890625 28.566406-17.734375 5.53125-7.277344 13.59375-11.75 22.695313-12.589844 9.097656-.839843 17.84375 2.078125 24.617187 8.222657l11.019532 10c4.347656 3.945312 7.421874 9.035156 8.890624 14.71875l8.234376 31.914062c1.511718 5.855469.542968 11.960938-2.511719 16.976562zm0 0"/></svg>