<?xml version="1.0" encoding="iso-8859-1"?>
<!-- Generator: Adobe Illustrator 19.0.0, SVG Export Plug-In . SVG Version: 6.00 Build 0)  -->
<svg version="1.1" id="Capa_1" xmlns="http://www.w3.org/2000/svg" xmlns:xlink="http://www.w3.org/1999/xlink" x="0px" y="0px"
	 viewBox="0 0 511.999 511.999" style="enable-background:new 0 0 511.999 511.999;" xml:space="preserve">
<g>
	<path style="fill:#F24141;" d="M155.404,291.234c9.2-21.329,29.08-62.602,60.347-103.427l-14.559-7.743
		c-14.877-7.912-31.065-11.924-48.114-11.924c-50.144,0-92.795,35.844-101.416,85.23l-0.933,5.348
		C78.986,259.271,123.928,264.8,155.404,291.234z"/>
	<path style="fill:#F24141;" d="M356.624,291.215c31.425-26.323,76.388-31.873,104.649-32.457l-0.941-5.391
		c-8.621-49.385-51.273-85.228-101.416-85.228c-17.046,0-33.234,4.014-48.116,11.932l-14.534,7.733
		C327.73,228.804,347.488,269.92,356.624,291.215z"/>
</g>
<polyline style="fill:#2C7B7E;" points="275.554,160.914 275.554,101.179 331.921,101.179 331.921,62.002 275.554,62.002 
	275.554,17.036 236.44,17.036 236.44,62.002 180.073,62.002 180.073,101.179 236.44,101.179 236.44,160.91 "/>
<rect x="37.29" y="425.281" style="fill:#FFC477;" width="437.42" height="69.69"/>
<path style="fill:#FF9929;" d="M502,258.6l-36.118,0.104c-27.764,0.079-76.064,4.706-109.259,32.511
	c-11.084-25.839-37.808-80.857-82.105-129.442l-18.522-20.316l-18.523,20.316c-43.959,48.215-70.893,103.552-82.068,129.461
	c-33.272-27.942-81.588-32.526-109.343-32.566L10,258.618l27.288,166.66h437.418L502,258.6z"/>
<path d="M439.427,393.674H72.568c-4.899,0-9.077-3.549-9.868-8.384l-13.59-83.001c-0.492-3.002,0.409-6.064,2.449-8.321
	c2.04-2.257,4.989-3.46,8.032-3.276c32.052,1.969,58.885,10.763,75.557,24.765c4.229,3.552,4.778,9.86,1.226,14.089
	c-3.552,4.23-9.858,4.778-14.089,1.227c-11.144-9.359-29.452-16.04-51.343-18.915l10.122,61.817h349.867l10.113-61.755
	c-21.915,2.89-40.226,9.557-51.352,18.876c-4.235,3.545-10.541,2.989-14.088-1.245c-3.546-4.234-2.989-10.541,1.244-14.087
	c16.641-13.938,43.467-22.717,75.538-24.719c3.041-0.188,5.997,1.015,8.039,3.271c2.042,2.257,2.944,5.321,2.452,8.325
	l-13.583,82.95C448.505,390.125,444.327,393.674,439.427,393.674z"/>
<polygon style="fill:#B0DBD0;" points="255.997,346.345 215.664,288.709 255.997,231.073 296.33,288.709 "/>
<path d="M255.997,356.345L255.997,356.345c-3.264,0-6.322-1.593-8.193-4.267l-40.333-57.636c-2.409-3.443-2.409-8.024,0-11.467
	l40.333-57.635c1.871-2.674,4.93-4.267,8.193-4.267c3.263,0,6.322,1.592,8.193,4.267l40.334,57.635
	c2.409,3.442,2.409,8.024,0,11.467l-40.334,57.636C262.319,354.752,259.26,356.345,255.997,356.345z M227.869,288.709l28.128,40.194
	l28.129-40.194l-28.129-40.194L227.869,288.709z"/>
<path d="M400.92,470.12c-0.65,0-1.311-0.06-1.95-0.19c-0.64-0.13-1.27-0.33-1.87-0.58c-0.609-0.25-1.189-0.55-1.729-0.91
	c-0.551-0.37-1.061-0.79-1.521-1.25s-0.88-0.97-1.24-1.52c-0.359-0.54-0.67-1.12-0.92-1.73c-0.25-0.6-0.439-1.23-0.569-1.87
	s-0.2-1.3-0.2-1.95c0-0.65,0.07-1.31,0.2-1.95s0.319-1.27,0.569-1.87c0.25-0.61,0.561-1.19,0.92-1.73c0.36-0.55,0.78-1.06,1.24-1.52
	s0.97-0.88,1.521-1.24c0.54-0.36,1.12-0.67,1.729-0.92c0.601-0.25,1.23-0.45,1.87-0.57c3.25-0.66,6.7,0.41,9.021,2.73
	c0.46,0.46,0.88,0.97,1.25,1.52c0.359,0.54,0.67,1.12,0.92,1.73c0.25,0.6,0.439,1.23,0.569,1.87s0.19,1.3,0.19,1.95
	c0,0.65-0.061,1.31-0.19,1.95s-0.319,1.27-0.569,1.87c-0.25,0.61-0.561,1.19-0.92,1.73c-0.37,0.55-0.79,1.06-1.25,1.52
	C406.13,469.051,403.559,470.12,400.92,470.12z"/>
<path d="M509.611,252.114c-1.9-2.23-4.683-3.514-7.611-3.514h-0.029l-32.344,0.094c-10.615-52.651-56.702-90.554-110.71-90.554
	c-18.701,0-36.47,4.409-52.813,13.104l-7.127,3.792c-4.276-5.346-8.748-10.674-13.42-15.944v-47.913h46.367c5.522,0,10-4.477,10-10
	V62.002c0-5.523-4.478-10-10-10h-46.367V17.036c0-5.523-4.478-10-10-10H236.44c-5.522,0-10,4.477-10,10v34.965h-46.367
	c-5.522,0-10,4.477-10,10v39.177c0,5.523,4.478,10,10,10h46.367v47.91c-4.665,5.264-9.133,10.593-13.407,15.946l-7.146-3.8
	c-16.339-8.689-34.106-13.096-52.81-13.096c-53.999,0-100.078,37.887-110.705,90.524l-32.359-0.045H10
	c-2.932,0-5.716,1.287-7.616,3.52c-1.903,2.237-2.727,5.197-2.252,8.096l27.156,165.855v68.876c0,5.523,4.478,10,10,10h437.418
	c5.522,0,10-4.477,10-10v-68.876l27.162-165.874C512.343,257.314,511.518,254.351,509.611,252.114z M315.497,188.9
	c13.42-7.14,28.028-10.761,43.419-10.761c43.281,0,80.38,29.577,90.362,71.137c-25.59,1.693-60.356,7.783-88.597,26.471
	c-10.081-21.853-26.326-52.833-49.418-84.594L315.497,188.9z M190.073,91.179V72.002h46.367c5.522,0,10-4.477,10-10V27.036h19.114
	v34.965c0,5.523,4.478,10,10,10h46.367v19.177h-46.367c-5.522,0-10,4.477-10,10v35.92l-2.169-2.379
	c-1.895-2.078-4.577-3.263-7.39-3.263c-2.813,0-5.495,1.184-7.39,3.263l-2.166,2.376v-35.917c0-5.523-4.478-10-10-10L190.073,91.179
	L190.073,91.179z M153.078,178.139c15.394,0,30.001,3.618,43.418,10.754l4.266,2.269c-22.957,31.644-39.244,62.677-49.391,84.6
	c-28.272-18.771-63.04-24.862-88.642-26.536C72.728,207.692,109.814,178.139,153.078,178.139z M464.706,484.965H47.288v-14.844
	h312.099c5.522,0,10-4.477,10-10s-4.478-10-10-10H47.288v-14.843h417.418V484.965z M466.21,415.278H45.784L21.773,268.635
	l24.273,0.034c25.042,0.036,71.712,4.01,102.927,30.224c2.42,2.034,5.662,2.801,8.734,2.073c3.076-0.729,5.627-2.868,6.879-5.77
	c9.66-22.397,28.902-61.842,58.746-100.866c0.237-0.276,0.461-0.567,0.67-0.873c6.458-8.399,13.408-16.772,20.86-24.945
	l11.134-12.211l11.133,12.211c7.474,8.197,14.435,16.573,20.896,24.959c0.206,0.301,0.427,0.587,0.66,0.859
	c30.056,39.221,49.191,78.549,58.748,100.828c1.247,2.906,3.795,5.051,6.87,5.785c3.077,0.734,6.317-0.03,8.741-2.061
	c31.147-26.09,77.818-30.106,102.867-30.177l24.312-0.07L466.21,415.278z"/>
<g>
</g>
<g>
</g>
<g>
</g>
<g>
</g>
<g>
</g>
<g>
</g>
<g>
</g>
<g>
</g>
<g>
</g>
<g>
</g>
<g>
</g>
<g>
</g>
<g>
</g>
<g>
</g>
<g>
</g>
</svg>
