<?xml version="1.0" encoding="iso-8859-1"?>
<!-- Generator: Adobe Illustrator 19.0.0, SVG Export Plug-In . SVG Version: 6.00 Build 0)  -->
<svg version="1.1" id="Capa_1" xmlns="http://www.w3.org/2000/svg" xmlns:xlink="http://www.w3.org/1999/xlink" x="0px" y="0px"
	 viewBox="0 0 512.003 512.003" style="enable-background:new 0 0 512.003 512.003;" xml:space="preserve">
<path style="fill:#FF9478;" d="M362.831,391.707c-25.892-11.225-37.781-41.314-26.557-67.205
	c11.225-25.892,41.314-37.781,67.205-26.557c25.892,11.225,95.317,66.257,84.092,92.149
	C476.347,415.986,388.722,402.932,362.831,391.707z"/>
<path style="fill:#FF7956;" d="M403.479,297.946c-25.892-11.225-55.98,0.665-67.205,26.557c-0.831,1.917-1.52,3.859-2.102,5.813
	c14.784,14.829,35.166,23.938,57.336,23.938c3.589,0,7.222-0.242,10.797-0.719c14.105-1.883,34.755-8.499,54.764-17.255
	C438.325,318.79,415.897,303.329,403.479,297.946z"/>
<path style="fill:#FF3F62;" d="M398.334,323.798c-27.972,3.735-53.675-15.913-57.41-43.885
	c-3.735-27.972,15.913-53.675,43.885-57.41s115.833,7.613,119.568,35.585S426.306,320.063,398.334,323.798z"/>
<path style="fill:#D80027;" d="M384.798,222.496c-26.425,3.528-45.41,26.665-44.281,52.796c10.638,5.019,22.442,7.747,34.721,7.747
	c12.753,0,25.522-3.087,36.924-8.926c14.867-7.614,36.058-24.384,54.016-42.483C437.706,223.265,401.093,220.32,384.798,222.496z"/>
<path style="fill:#00DDC2;" d="M398.498,247.418c-25.118,12.863-55.908,2.929-68.771-22.189s-2.929-55.908,22.189-68.771
	c25.118-12.863,111.724-31.514,124.587-6.396C489.366,175.18,423.616,234.555,398.498,247.418z"/>
<path style="fill:#00CCB3;" d="M399.33,194.91c7.614-12.689,15.64-34.101,21.318-56.104c-26.932,2.974-55.881,11.068-68.733,17.649
	c-25.118,12.863-35.052,43.653-22.189,68.771c1.64,3.203,3.575,6.155,5.749,8.848C361.647,232.195,385.742,217.554,399.33,194.91z"
	/>
<path style="fill:#FFE477;" d="M373.606,179.476c-14.52,24.198-45.908,32.043-70.105,17.522s-32.043-45.908-17.522-70.105
	c14.52-24.198,78.174-85.814,102.372-71.294S388.126,155.279,373.606,179.476z"/>
<path style="fill:#FFEB99;" d="M329.56,147.777c9.763-16.269,41.736-49.453,68.995-65.039c-0.281-12.829-3.207-22.94-10.204-27.139
	c-24.198-14.52-87.852,47.096-102.372,71.294c-14.52,24.198-6.675,55.585,17.522,70.105c8.958,5.376,18.901,7.678,28.61,7.228
	C320.362,188.138,318.665,165.934,329.56,147.777z"/>
<g>
	<path style="fill:#FF9478;" d="M28.869,314.45l41.45,1.771l-15.115,29.108c-2.974,5.727-11.282,5.372-13.757-0.588L28.869,314.45z"
		/>
	<path style="fill:#FF9478;" d="M88.86,316.958l41.45,1.771l-15.115,29.108c-2.974,5.727-11.282,5.372-13.757-0.588L88.86,316.958z"
		/>
	<path style="fill:#FF9478;" d="M164.726,379.815l-40.051,10.826l5.622-32.313c1.106-6.358,9.134-8.527,13.293-3.593
		L164.726,379.815z"/>
	<path style="fill:#FF9478;" d="M106.777,395.536l-40.051,10.826l5.622-32.313c1.106-6.358,9.134-8.527,13.293-3.593
		L106.777,395.536z"/>
	<path style="fill:#FF9478;" d="M148.852,319.465l41.45,1.771l-15.115,29.108c-2.974,5.727-11.282,5.372-13.757-0.588
		L148.852,319.465z"/>
</g>
<path style="fill:#FFDAAA;" d="M93.687,217.942l-60.425,7.582c-15.503,1.945-26.781,15.668-25.688,31.254l3.636,51.809
	c0.886,12.621,11.095,22.57,23.734,23.13l206.307,9.144l-201.32,55.1c-11.767,3.22-19.467,14.492-18.188,26.625l2.157,20.463
	c1.059,10.044,10.389,17.1,20.342,15.383l243.423-41.991c0,0,117.87-17.873,87.614-133.725
	c-0.901,0.641-98.325-100.786-98.325-100.786L93.687,217.942z"/>
<path style="fill:#FFC477;" d="M379.895,309.754c-0.614-8.364-2.087-17.351-4.617-27.039c-0.202,0.143-5.243-4.832-12.936-12.628
	l-77.195-6.249C285.146,263.838,308.824,336.865,379.895,309.754z"/>
<path style="fill:#FF3F62;" d="M11.21,308.587c0.886,12.621,11.095,22.57,23.734,23.131l56.616,2.509l-11-114.638l0,0l-47.298,5.935
	c-15.503,1.945-26.781,15.668-25.688,31.254L11.21,308.587z"/>
<path style="fill:#57565C;" d="M32.949,272.003c0-10.565-9.413-19.13-21.025-19.13c-1.503,0-2.967,0.149-4.381,0.422
	c-0.054,1.148-0.05,2.308,0.032,3.482l2.405,34.267c0.641,0.054,1.288,0.089,1.945,0.089
	C23.536,291.134,32.949,282.569,32.949,272.003z"/>
<path style="fill:#FFC477;" d="M265.039,317.126L10.822,303.058l0.388,5.528c0.886,12.62,11.095,22.57,23.734,23.13l206.307,9.144
	L39.93,395.96c-11.767,3.22-19.467,14.492-18.188,26.625l0.967,9.172l234.379-65.418L265.039,317.126z"/>
<circle style="fill:#A4E276;" cx="338.631" cy="233.1" r="61.682"/>
<path style="fill:#91DC5A;" d="M388.64,261.004c-34.066,0-61.682-27.616-61.682-61.682c0-9.955,2.373-19.351,6.561-27.677
	c-31.67,2.603-56.566,29.113-56.566,61.454c0,34.066,27.616,61.682,61.682,61.682c24.111,0,44.977-13.842,55.121-34.006
	C392.068,260.915,390.365,261.004,388.64,261.004z"/>
<path style="fill:#00DDC2;" d="M338.635,276.681c-24.031,0-43.582-19.55-43.582-43.581s19.551-43.581,43.582-43.581
	s43.581,19.55,43.581,43.581S362.666,276.681,338.635,276.681z"/>
<path style="fill:#00CCB3;" d="M326.958,199.322c0-2.84,0.209-5.63,0.58-8.368c-18.673,4.921-32.485,21.948-32.485,42.145
	c0,24.031,19.551,43.581,43.582,43.581c14.277,0,26.971-6.9,34.925-17.541C346.785,252.411,326.958,228.185,326.958,199.322z"/>
<circle style="fill:#FF3F62;" cx="338.631" cy="233.1" r="19.692"/>
<path style="fill:#D80027;" d="M329.205,215.811c-6.114,3.342-10.262,9.83-10.262,17.288c0,10.875,8.816,19.692,19.692,19.692
	c4.757,0,9.119-1.687,12.523-4.495C340.66,240.25,332.831,228.907,329.205,215.811z"/>
<circle style="fill:#FFFFFF;" cx="203.541" cy="242.26" r="48.878"/>
<path style="fill:#DDFFFB;" d="M252.416,242.256c0-26.994-21.883-48.878-48.878-48.878c-26.994,0-48.878,21.883-48.878,48.878
	c0,3.453,0.363,6.821,1.044,10.071c19.306,2.545,42.006,4.641,64.422,4.642c0.006,0,0.009,0,0.016,0
	c10.956,0,21.095-0.494,30.447-1.482C251.771,251.277,252.416,246.843,252.416,242.256z"/>
<path style="fill:#FF3F62;" d="M203.539,273.033c-16.97,0-30.777-13.806-30.777-30.777c0-16.972,13.807-30.778,30.777-30.778
	s30.777,13.806,30.777,30.778C234.316,259.226,220.509,273.033,203.539,273.033z"/>
<path style="fill:#D80027;" d="M234.316,242.256c0-16.972-13.807-30.778-30.777-30.778s-30.777,13.806-30.777,30.778
	c0,4.387,0.929,8.56,2.591,12.34c14.296,1.41,29.6,2.372,44.774,2.373c0.006,0,0.009,0,0.016,0c3.594,0,7.09-0.059,10.51-0.165
	C232.988,252.469,234.316,247.515,234.316,242.256z"/>
<path style="fill:#3E3D42;" d="M203.539,256.543c-6.99,0-12.677-5.687-12.677-12.676c0-6.99,5.687-12.677,12.677-12.677
	s12.677,5.687,12.677,12.677C216.216,250.856,210.528,256.543,203.539,256.543z"/>
<path style="fill:#2D2D30;" d="M203.338,243.867c0-4.722,2.6-8.842,6.439-11.023c-1.844-1.048-3.97-1.654-6.238-1.654
	c-6.99,0-12.677,5.687-12.677,12.677c0,6.989,5.687,12.676,12.677,12.676c2.268,0,4.394-0.606,6.238-1.654
	C205.938,252.708,203.338,248.588,203.338,243.867z"/>
<circle style="fill:#FF3F62;" cx="265.041" cy="181.93" r="47.06"/>
<path style="fill:#D80027;" d="M265.039,134.867c-3.565,0-7.032,0.409-10.37,1.16c21,4.725,36.692,23.475,36.692,45.901
	c0,22.427-15.692,41.177-36.692,45.902c3.338,0.751,6.805,1.16,10.37,1.16c25.992,0,47.062-21.07,47.062-47.062
	C312.101,155.938,291.03,134.867,265.039,134.867z"/>
<path style="fill:#FFE477;" d="M312.101,174.526c0,0-81.559-11.029-218.413,43.415C93.687,220.025,332.967,275.403,312.101,174.526z
	"/>
<path style="fill:#FFDA44;" d="M312.101,174.526c0,0-7.468-1.006-21.652-0.908c-12.233,45.249-102.558,40.777-163.127,31.836
	c-10.806,3.725-22.016,7.865-33.634,12.487C93.687,220.025,332.967,275.403,312.101,174.526z"/>
<circle style="fill:#00DDC2;" cx="252.411" cy="339.62" r="37.758"/>
<path style="fill:#00CCB3;" d="M252.417,366.452c-14.797,0-26.836-12.038-26.836-26.835c0-14.798,12.039-26.836,26.836-26.836
	c14.797,0,26.835,12.038,26.835,26.836C279.252,354.414,267.213,366.452,252.417,366.452z"/>
<circle style="fill:#FFE477;" cx="252.411" cy="339.62" r="16.836"/>
<path style="fill:#FFDA44;" d="M250.173,331.938c0-3.37,1-6.501,2.705-9.133c-0.155-0.004-0.306-0.023-0.462-0.023
	c-9.298,0-16.836,7.538-16.836,16.836s7.538,16.836,16.836,16.836c5.929,0,11.131-3.071,14.13-7.703
	C257.464,348.503,250.173,341.08,250.173,331.938z"/>
<path d="M338.635,260.291c14.993,0,27.191-12.198,27.191-27.191s-12.198-27.191-27.191-27.191
	c-14.994,0-27.192,12.198-27.192,27.191S323.642,260.291,338.635,260.291z M338.635,220.908c6.722,0,12.191,5.469,12.191,12.191
	s-5.469,12.191-12.191,12.191c-6.723,0-12.192-5.469-12.192-12.191S331.913,220.908,338.635,220.908z"/>
<path d="M276.752,339.617c0-13.419-10.917-24.336-24.335-24.336c-13.419,0-24.336,10.917-24.336,24.336
	c0,13.418,10.917,24.335,24.336,24.335C265.835,363.952,276.752,353.035,276.752,339.617z M243.081,339.617
	c0-5.147,4.188-9.336,9.336-9.336c5.147,0,9.335,4.188,9.335,9.336s-4.188,9.335-9.335,9.335
	C247.269,348.952,243.081,344.765,243.081,339.617z"/>
<path d="M511.811,257.096c-2.943-22.048-39.279-32.866-65.156-37.803c3.713-3.602,7.292-7.263,10.616-10.887
	c24.5-26.711,33.216-47.491,25.908-61.762c-11.511-22.477-58.443-17.056-84.679-12.02c3.463-13.123,5.895-26.057,6.961-37.391
	c2.371-25.193-2.088-41.364-13.252-48.063c-13.748-8.249-34.695-0.477-63.361,21.703c-36.415,28.176-51.362,55.839-52.246,57.747
	c-3.744-0.818-7.614-1.251-11.564-1.251c-27.67,0-50.578,20.708-54.082,47.437c-32.749,6.452-72.757,17.425-119.138,35.813
	l-59.491,7.465c-19.448,2.44-33.607,19.668-32.235,39.221l3.636,51.81c1.064,15.161,12.456,27.342,27.138,29.706l3.654,8.799
	c2.275,5.479,7.371,9.04,13.298,9.294c0.225,0.009,9.692,0.44,14.042-8.126l4.248-8.18l24.909,1.104l3.495,8.416
	c2.275,5.479,7.371,9.04,13.298,9.293c0.224,0.01,9.422,0.344,14.041-8.126l4.171-8.032l25.05,1.11l3.43,8.261
	c0.55,1.325,1.268,2.534,2.12,3.615l-1.584,0.434l-5.713-6.779c-3.823-4.537-9.755-6.393-15.483-4.846
	c-5.727,1.549-9.917,6.142-10.934,11.985l-1.541,8.855l-24.183,6.619l-5.808-6.893c-3.823-4.536-9.755-6.393-15.483-4.846
	c-5.727,1.549-9.917,6.142-10.934,11.986l-1.566,9l-25.442,6.963c-15.386,4.21-25.339,18.78-23.667,34.645l2.157,20.463
	c0.721,6.843,8.381,24.396,29.075,21.987l243.355-41.979c2.577-0.401,36.333-6.025,63.78-28.982
	c35.417,23.36,108.484,16.953,115.945,15.313c13.528-2.975,22.228-8.727,25.856-17.096c10.543-24.32-27.277-59.17-48.764-76.42
	c7.269-3.098,14.463-6.492,21.074-10.001c13.475-7.153,24.145-14.414,31.712-21.58C508.531,275.552,513.019,266.138,511.811,257.096
	z M338.222,82.582c16.27-12.281,37.585-25.761,46.269-20.552c11.147,6.689,7.831,48.196-7.241,90.638
	c-1.386,3.903,0.654,8.191,4.558,9.577c0.83,0.295,7.554,0.879,9.577-4.558c0.828-2.224,1.558-4.494,2.3-6.762
	c38.593-8.565,70.954-7.576,76.143,2.556c4.619,9.019-9.833,29.762-23.611,44.784c-12.334,13.447-26.902,26.028-38.411,34.358
	c-0.258-37.927-31.183-68.706-69.17-68.706c-7.248,0-14.294,1.119-21.06,3.286c-4.074-14.552-13.992-26.461-26.841-33.354
	C291.255,132.8,307.726,105.603,338.222,82.582z M338.635,287.282c-29.822,0-54.09-24.22-54.178-54.021
	c1.058-0.403,2.09-0.822,3.104-1.251c-0.008,0.363-0.766,11.198,4.453,21.994c3.039,6.287,8.918,4.211,9.917,3.761
	c3.777-1.699,5.461-6.14,3.761-9.917c-2.093-4.649-3.154-9.611-3.154-14.748c0-3.744,0.578-7.429,1.708-10.962
	c6.244-5.179,10.751-11.37,13.484-18.42c6.131-4.375,13.338-6.699,20.89-6.699c19.896,0,36.082,16.186,36.082,36.081
	s-16.186,36.081-36.082,36.081c-4.434,0-8.762-0.797-12.864-2.368c-3.865-1.48-8.205,0.453-9.687,4.321
	c-1.481,3.868,0.453,8.205,4.321,9.687c5.821,2.229,11.954,3.36,18.229,3.36c28.167,0,51.082-22.915,51.082-51.081
	s-22.915-51.081-51.082-51.081c-6.149,0-12.14,1.081-17.773,3.178c-0.019-1.068-0.067-2.148-0.146-3.241
	c5.73-2.015,11.738-3.037,17.933-3.037c29.876,0,54.182,24.306,54.182,54.182S368.511,287.282,338.635,287.282z M265.039,142.367
	c15.959,0,30.156,9.663,36.314,23.857c-13.716-0.528-39.064-0.179-74.596,5.713C231.196,154.945,246.675,142.367,265.039,142.367z
	 M305.622,181.509c1.304,12.186-2.181,21.632-10.574,28.768c-17.583,14.948-55.952,20.311-110.959,15.508
	c-25.578-2.234-48.992-6.177-65.14-9.418C219.839,179.861,286.716,180.388,305.622,181.509z M203.539,283.634
	c-22.816,0-41.378-18.563-41.378-41.378c0-1.237,0.074-2.468,0.182-3.694c5.564,0.687,11.275,1.317,17.073,1.86
	c1.413,0.132,2.805,0.253,4.198,0.372c-0.517,17.843,8.799,23.249,19.925,23.249s21.612-7.5,20.123-21.558
	c7.504-0.073,14.583-0.403,21.239-0.987C244.901,270.367,226.355,283.634,203.539,283.634z M208.457,242.295
	c1.319,4.177-2.064,6.748-4.919,6.748s-6.134-2.67-4.777-7.174C202.059,242.05,205.29,242.192,208.457,242.295z M16.919,282.802
	l-1.546-22.031c5.789,1.316,10.076,5.846,10.076,11.232C25.449,276.898,21.909,281.088,16.919,282.802z M19.168,311.032
	l191.723,10.609c-1.405,3.233-2.438,6.662-3.056,10.232l-172.559-7.649C27.461,323.878,20.989,318.398,19.168,311.032z
	 M222.158,339.617c0-16.685,13.574-30.259,30.258-30.259s30.258,13.574,30.258,30.259s-13.574,30.258-30.258,30.258
	S222.158,356.302,222.158,339.617z M41.911,403.195l168.73-46.18c1.897,4.539,4.519,8.699,7.711,12.35L29.201,421.799
	C28.303,413.279,33.648,405.456,41.911,403.195z M286.539,409.025c-0.05,0.008-0.1,0.016-0.15,0.024L42.966,451.04
	c-9.262,0.793-11.316-6.007-11.608-8.778l-0.526-4.986l202.658-56.564c5.763,2.665,12.171,4.163,18.926,4.163
	c24.955,0,45.258-20.303,45.258-45.258c0-24.956-20.303-45.259-45.258-45.259c-12.24,0-23.353,4.892-31.508,12.814L23.676,296.259
	c9.88-4.189,16.772-13.482,16.772-24.256c0-13.095-10.18-24.005-23.537-26.214c3.034-6.784,9.428-11.838,17.284-12.824l39.636-4.974
	l4.741,49.406c0.373,3.88,3.637,6.784,7.457,6.784c0.239,0,8.3-1.127,7.475-8.218l-4.783-49.841l4.037-0.507
	c7.115,2.233,28.212,7.021,54.714,10.93c-0.191,1.894-0.312,3.798-0.312,5.709c0,31.087,25.291,56.378,56.378,56.378
	s56.378-25.291,56.378-56.378c0-0.872-0.025-1.744-0.065-2.616c3.394-0.56,6.656-1.199,9.773-1.922
	c2.387,36,32.417,64.564,69.011,64.564c11.404,0,22.162-2.791,31.655-7.699c5.382,27.717,1.836,51.315-10.6,70.25
	C335.923,401.025,287.021,408.95,286.539,409.025z M466.652,356.958c11.264,13.175,16.511,24.446,14.038,30.152
	c-2.52,5.811-17.016,11.973-49.585,10.22c-26.052-1.403-51.21-4.318-67.186-13.401c2.929-3.315,5.697-6.894,8.241-10.757
	c8.15-12.375,13.108-26.281,14.866-41.61c1.487,0.115,17.201,3.063,42.477-8.545C443.934,333.818,457.244,345.953,466.652,356.958z
	 M459.73,293.407c-45.807,24.843-68.814,23.457-71.995,23.179c-0.163-9.846-1.515-20.207-4.043-31.054
	c10.044-8.643,17.581-20.109,21.374-33.162c7.795-4.495,17.618-11.783,27.507-20.246c16.902,2.485,32.3,6.31,43.666,10.869
	c12.46,4.999,20.007,10.862,20.704,16.087C497.781,265.359,488.4,277.858,459.73,293.407z"/>
<g>
</g>
<g>
</g>
<g>
</g>
<g>
</g>
<g>
</g>
<g>
</g>
<g>
</g>
<g>
</g>
<g>
</g>
<g>
</g>
<g>
</g>
<g>
</g>
<g>
</g>
<g>
</g>
<g>
</g>
</svg>
