<?xml version="1.0" encoding="iso-8859-1"?>
<!-- Generator: Adobe Illustrator 19.0.0, SVG Export Plug-In . SVG Version: 6.00 Build 0)  -->
<svg version="1.1" id="Capa_1" xmlns="http://www.w3.org/2000/svg" xmlns:xlink="http://www.w3.org/1999/xlink" x="0px" y="0px"
	 viewBox="0 0 512 512" style="enable-background:new 0 0 512 512;" xml:space="preserve">
<polygon style="fill:#2C7B7E;" points="125.228,236.864 260.437,236.864 270.257,211.131 309.031,211.131 309.031,175.587 
	76.634,175.587 76.634,211.131 115.408,211.131 "/>
<polygon style="fill:#F6DAB9;" points="270.257,211.131 260.437,236.864 125.228,236.864 115.408,211.131 76.634,211.131 
	76.634,422.927 192.833,477.229 309.031,422.927 309.031,211.131 "/>
<path d="M192.833,443.907c-1.446,0-2.892-0.313-4.234-0.94l-76.924-35.949c-3.518-1.644-5.766-5.176-5.766-9.06V285.921
	c0-5.523,4.477-10,10-10s10,4.477,10,10v105.672l66.924,31.275l66.924-31.275V285.921c0-5.523,4.477-10,10-10s10,4.477,10,10
	v112.037c0,3.883-2.248,7.416-5.766,9.06l-76.924,35.949C195.725,443.594,194.279,443.907,192.833,443.907z"/>
<g>
	<path style="fill:#C6C5CA;" d="M502,175.587v-2.378c0-105.293-65.099-138.437-65.099-138.437l-3.053,5.383
		c-7.424,13.143-43.858,74.257-88.835,93.015v42.416"/>
	<rect x="76.63" y="139.1" style="fill:#C6C5CA;" width="232.4" height="36.487"/>
	<rect x="10" y="139.1" style="fill:#C6C5CA;" width="30.652" height="36.487"/>
</g>
<g>
	<path style="fill:#ACABB1;" d="M413.998,175.587h-68.984v42.571c44.962,18.897,81.33,79.727,88.835,92.951l3.053,5.293
		c0,0,65.099-32.162,65.099-138.526v-2.288"/>
</g>
<path d="M451.67,185.591c-0.65,0-1.31-0.07-1.96-0.2c-0.63-0.13-1.26-0.32-1.87-0.57c-0.6-0.25-1.18-0.56-1.72-0.92
	c-0.55-0.36-1.06-0.78-1.53-1.24c-0.46-0.46-0.87-0.98-1.24-1.52c-0.36-0.54-0.67-1.13-0.92-1.73c-0.25-0.6-0.44-1.23-0.57-1.87
	s-0.19-1.3-0.19-1.95c0-0.66,0.06-1.31,0.19-1.96c0.13-0.64,0.32-1.26,0.57-1.87c0.25-0.6,0.56-1.18,0.92-1.72
	c0.37-0.55,0.78-1.06,1.24-1.52c0.47-0.47,0.98-0.88,1.53-1.25c0.54-0.36,1.12-0.67,1.72-0.92c0.61-0.25,1.24-0.44,1.87-0.57
	c1.29-0.26,2.62-0.26,3.91,0c0.64,0.13,1.27,0.32,1.87,0.57s1.19,0.56,1.73,0.92c0.55,0.37,1.06,0.78,1.52,1.25
	c0.46,0.46,0.88,0.97,1.24,1.52c0.36,0.54,0.67,1.12,0.92,1.72c0.25,0.61,0.44,1.23,0.57,1.87c0.13,0.65,0.2,1.3,0.2,1.96
	c0,0.65-0.07,1.31-0.2,1.95s-0.32,1.27-0.57,1.87c-0.25,0.6-0.56,1.19-0.92,1.73c-0.36,0.54-0.78,1.06-1.24,1.52
	s-0.97,0.88-1.52,1.24c-0.54,0.36-1.13,0.67-1.73,0.92s-1.23,0.44-1.87,0.57C452.98,185.521,452.32,185.591,451.67,185.591z"/>
<rect x="10" y="175.59" style="fill:#ACABB1;" width="30.652" height="36.55"/>
<g>
	<rect x="40.652" y="121.55" style="fill:#FF9929;" width="35.983" height="108.08"/>
	<rect x="309.03" y="121.55" style="fill:#FF9929;" width="35.983" height="108.08"/>
</g>
<path d="M477.417,58.461c-17.46-23.009-35.23-32.219-35.979-32.6c-4.765-2.426-10.598-0.673-13.235,3.979l-3.062,5.397
	c-5.937,10.511-34.816,59.312-71.109,81.984c-1.613-3.358-5.045-5.676-9.019-5.676H309.03c-5.523,0-10,4.477-10,10v7.554H86.634
	v-7.554c0-5.523-4.477-10-10-10H40.652c-5.523,0-10,4.477-10,10v7.554H10c-5.523,0-10,4.477-10,10v73.037c0,5.523,4.477,10,10,10
	h20.652v7.493c0,5.523,4.477,10,10,10h25.982v183.298c0,3.883,2.248,7.416,5.766,9.06l116.198,54.302
	c1.342,0.627,2.788,0.94,4.234,0.94s2.892-0.313,4.234-0.94l116.198-54.302c3.518-1.644,5.766-5.176,5.766-9.06V239.629h25.983
	c3.915,0,7.304-2.25,8.945-5.527c36.278,22.723,65.242,71.456,71.227,82.002l3.053,5.293c1.843,3.196,5.2,5.006,8.669,5.006
	c1.49,0,3.002-0.334,4.423-1.036c0.75-0.371,18.576-9.342,36.071-32.277C493.185,272.397,512,235.612,512,177.875v-4.666
	C512,116.037,493.193,79.253,477.417,58.461z M86.634,185.587H299.03v15.544h-28.774c-4.147,0-7.864,2.56-9.343,6.435l-7.364,19.297
	H132.115l-7.364-19.298c-1.479-3.875-5.195-6.435-9.343-6.435H86.634V185.587z M299.031,149.099v16.488H86.634v-16.488H299.031z
	 M20,149.099h10.652v16.488H20V149.099z M20,202.136v-16.549h10.652v16.549H20z M50.652,219.629v-88.084h15.982v88.084H50.652z
	 M299.031,416.562L192.833,466.19L86.634,416.562V221.131h21.887l7.364,19.298c1.479,3.875,5.195,6.435,9.343,6.435h135.209
	c4.147,0,7.864-2.56,9.343-6.435l7.364-19.297h21.887V416.562z M335.014,219.629h-15.983v-88.084h15.983V219.629z M492,177.875
	c0,40.771-10.304,76.095-29.797,102.155c-8.058,10.771-16.188,17.955-21.905,22.255c-11.983-20.368-44.278-69.938-85.284-90.521
	v-26.177h58.984c5.523,0,10-4.477,10-10s-4.477-10-10-10h-58.984v-26.005c41.086-20.511,73.333-70.183,85.289-90.593
	C456.537,61.406,492,97.235,492,173.209V177.875z"/>
<path style="fill:#F24141;" d="M215.182,320.219c0,0-21.043-21.397-22.349-21.397c-1.305,0-22.349,21.397-22.349,21.397
	l-19.532-8.453l8.295,56.488h67.172l8.295-56.488L215.182,320.219z"/>
<path d="M226.418,378.255h-67.172c-4.962,0-9.173-3.638-9.894-8.547l-8.294-56.488c-0.527-3.589,0.931-7.182,3.81-9.389
	c2.878-2.207,6.726-2.682,10.056-1.241l13.266,5.741c1.771-1.776,3.857-3.858,5.958-5.93c11.809-11.646,13.905-13.579,18.686-13.579
	c4.782,0,6.877,1.933,18.686,13.579c2.101,2.072,4.187,4.154,5.958,5.93l13.266-5.741c3.33-1.441,7.177-0.966,10.056,1.241
	c2.878,2.207,4.336,5.8,3.81,9.389l-8.295,56.488C235.591,374.616,231.38,378.255,226.418,378.255z M167.885,358.255h49.895
	l4.432-30.181l-3.058,1.323c-3.792,1.642-8.204,0.781-11.102-2.166c-5.128-5.214-11.002-11.059-15.219-15.12
	c-4.217,4.062-10.091,9.906-15.219,15.12c-2.898,2.946-7.309,3.808-11.102,2.166l-3.059-1.323L167.885,358.255z"/>
<g>
</g>
<g>
</g>
<g>
</g>
<g>
</g>
<g>
</g>
<g>
</g>
<g>
</g>
<g>
</g>
<g>
</g>
<g>
</g>
<g>
</g>
<g>
</g>
<g>
</g>
<g>
</g>
<g>
</g>
</svg>
