<?xml version="1.0" encoding="iso-8859-1"?>
<!-- Generator: Adobe Illustrator 19.0.0, SVG Export Plug-In . SVG Version: 6.00 Build 0)  -->
<svg version="1.1" id="Capa_1" xmlns="http://www.w3.org/2000/svg" xmlns:xlink="http://www.w3.org/1999/xlink" x="0px" y="0px"
	 viewBox="0 0 512 512" style="enable-background:new 0 0 512 512;" xml:space="preserve">
<path d="M217.109,512c-2.64,0-5.21-1.07-7.069-2.93c-1.87-1.86-2.931-4.44-2.931-7.07s1.061-5.21,2.931-7.07
	c0.46-0.46,0.97-0.88,1.52-1.24c0.54-0.36,1.12-0.67,1.721-0.92c0.609-0.25,1.239-0.44,1.869-0.57c1.29-0.26,2.62-0.26,3.91,0
	c0.641,0.13,1.271,0.32,1.87,0.57c0.601,0.25,1.19,0.56,1.73,0.92c0.55,0.36,1.06,0.78,1.52,1.24c1.86,1.86,2.93,4.44,2.93,7.07
	s-1.069,5.21-2.93,7.07c-0.46,0.46-0.97,0.88-1.52,1.24c-0.54,0.37-1.13,0.67-1.73,0.92c-0.6,0.25-1.229,0.45-1.87,0.58
	C218.42,511.94,217.76,512,217.109,512z"/>
<path d="M294.89,512c-2.63,0-5.21-1.07-7.07-2.93c-0.46-0.46-0.88-0.97-1.239-1.52c-0.36-0.54-0.67-1.12-0.92-1.73
	c-0.25-0.6-0.44-1.23-0.57-1.87c-0.13-0.64-0.2-1.3-0.2-1.95c0-0.65,0.07-1.31,0.2-1.95s0.32-1.27,0.57-1.87
	c0.25-0.61,0.56-1.19,0.92-1.73c0.359-0.55,0.779-1.06,1.239-1.52c0.461-0.46,0.971-0.88,1.521-1.24c0.54-0.36,1.12-0.67,1.729-0.92
	c0.601-0.25,1.23-0.45,1.87-0.57c1.29-0.26,2.62-0.26,3.91,0c0.63,0.12,1.26,0.32,1.87,0.57c0.6,0.25,1.18,0.56,1.72,0.92
	c0.551,0.36,1.061,0.78,1.521,1.24s0.88,0.97,1.25,1.52c0.359,0.54,0.67,1.12,0.92,1.73c0.25,0.6,0.439,1.23,0.57,1.87
	c0.13,0.64,0.189,1.3,0.189,1.95c0,0.65-0.06,1.31-0.189,1.95c-0.131,0.64-0.32,1.27-0.57,1.87c-0.25,0.61-0.561,1.19-0.92,1.73
	c-0.37,0.55-0.79,1.06-1.25,1.52C300.1,510.93,297.52,512,294.89,512z"/>
<polyline style="fill:#F47C5A;" points="294.892,48.991 294.892,121.63 347.053,121.63 "/>
<polyline style="fill:#F24141;" points="454.839,161.2 502,161.2 483.182,105.095 502,48.991 294.892,48.991 347.053,121.63 "/>
<rect x="294.89" y="121.63" style="fill:#FF6243;" width="159.95" height="122.21"/>
<path style="fill:#FF9929;" d="M394.022,173.387c0,0-17.096-21.976-18.156-21.976s-18.157,21.976-18.157,21.976l-23.846-8.682
	l6.739,49.354h70.527l6.739-49.353L394.022,173.387z"/>
<path d="M411.13,224.059h-70.528c-5,0-9.231-3.693-9.908-8.647l-6.738-49.354c-0.474-3.471,0.903-6.938,3.631-9.137
	c2.727-2.2,6.406-2.812,9.698-1.612l17.034,6.202c1.308-1.655,2.785-3.516,4.271-5.369c2.618-3.264,4.763-5.88,6.375-7.775
	c3.305-3.886,5.915-6.956,10.902-6.956c4.988,0,7.598,3.07,10.902,6.956c1.611,1.895,3.757,4.511,6.374,7.775
	c1.486,1.853,2.964,3.713,4.271,5.368l17.034-6.201c3.291-1.198,6.973-0.586,9.698,1.612c2.728,2.2,4.104,5.666,3.631,9.137
	l-6.738,49.353C420.361,220.366,416.13,224.059,411.13,224.059z M349.329,204.059h53.073l3.316-24.288l-8.275,3.012
	c-4.079,1.487-8.648,0.169-11.313-3.256c-3.362-4.321-7.134-9.084-10.264-12.951c-3.13,3.867-6.902,8.63-10.265,12.952
	c-2.665,3.426-7.234,4.743-11.313,3.256l-8.275-3.013L349.329,204.059z"/>
<circle style="fill:#F6DAB9;" cx="294.89" cy="29.496" r="19.496"/>
<polyline style="fill:#B0DBD0;" points="164.947,121.63 217.108,121.63 217.108,48.991 "/>
<polyline style="fill:#2C7B7E;" points="164.947,121.63 217.108,48.991 10,48.991 28.818,105.095 10,161.2 57.161,161.2 "/>
<rect x="57.16" y="121.63" style="fill:#81B4A7;" width="159.95" height="122.21"/>
<path style="fill:#FFC477;" d="M117.978,173.387c0,0,17.096-21.976,18.156-21.976s18.157,21.976,18.157,21.976l23.846-8.682
	l-6.739,49.354h-70.527l-6.739-49.353L117.978,173.387z"/>
<path d="M171.398,224.059H100.87c-5,0-9.231-3.693-9.908-8.647l-6.738-49.353c-0.474-3.471,0.903-6.937,3.631-9.137
	c2.727-2.199,6.406-2.811,9.698-1.612l17.034,6.201c1.307-1.655,2.784-3.516,4.271-5.368c2.617-3.264,4.763-5.88,6.374-7.775
	c3.305-3.886,5.914-6.956,10.902-6.956c4.987,0,7.598,3.069,10.902,6.956c1.612,1.896,3.757,4.511,6.375,7.775
	c1.485,1.853,2.963,3.714,4.271,5.369l17.034-6.202c3.295-1.198,6.973-0.586,9.698,1.612c2.728,2.199,4.104,5.666,3.631,9.137
	l-6.738,49.354C180.63,220.366,176.398,224.059,171.398,224.059z M109.598,204.059h53.073l3.316-24.288l-8.275,3.013
	c-4.079,1.487-8.648,0.169-11.313-3.256c-3.362-4.321-7.135-9.084-10.265-12.952c-3.13,3.867-6.902,8.63-10.264,12.951
	c-2.665,3.426-7.234,4.743-11.313,3.256l-8.275-3.012L109.598,204.059z"/>
<circle style="fill:#F6DAB9;" cx="217.11" cy="29.496" r="19.496"/>
<path d="M493.729,105.095l17.751-52.924c1.023-3.051,0.517-6.408-1.362-9.02s-4.9-4.161-8.118-4.161H322.82
	c1.016-2.981,1.568-6.175,1.568-9.496C324.388,13.231,311.156,0,294.893,0c-16.265,0-29.496,13.231-29.496,29.496
	c0,12.756,8.139,23.645,19.496,27.75V462c0,5.523,4.478,10,10,10s10-4.477,10-10V253.84h149.946c5.522,0,10-4.477,10-10V171.2H502
	c3.218,0,6.239-1.548,8.118-4.161c1.879-2.612,2.386-5.969,1.362-9.02L493.729,105.095z M304.893,80.062l22.668,31.568h-22.668
	V80.062z M294.893,20c5.235,0,9.495,4.26,9.495,9.496s-4.26,9.496-9.495,9.496c-5.236,0-9.496-4.26-9.496-9.496
	S289.656,20,294.893,20z M444.839,233.84H304.893V131.63l0,0c0.024,0,0,0,0.024,0h139.922V233.84z M473.701,108.275l14.397,42.924
	h-23.26v-29.57c0-5.523-4.478-10-10-10H352.184L314.385,58.99h173.714l-14.397,42.924
	C473.009,103.979,473.009,106.212,473.701,108.275z"/>
<path d="M217.107,0c-16.264,0-29.495,13.231-29.495,29.496c0,3.321,0.552,6.515,1.568,9.496H10c-3.218,0-6.239,1.548-8.118,4.161
	c-1.879,2.612-2.386,5.969-1.362,9.02l17.751,52.924L0.52,158.02c-1.023,3.051-0.517,6.408,1.362,9.02s4.9,4.161,8.118,4.161h37.161
	v72.64c0,5.523,4.478,10,10,10h149.946V462c0,5.523,4.478,10,10,10s10-4.477,10-10V57.246c11.357-4.105,19.496-14.995,19.496-27.75
	C246.604,13.231,233.372,0,217.107,0z M207.612,29.496c0-5.236,4.26-9.496,9.495-9.496c5.236,0,9.496,4.26,9.496,9.496
	s-4.26,9.496-9.496,9.496C211.872,38.991,207.612,34.731,207.612,29.496z M207.107,111.63H184.44l22.668-31.568v31.568H207.107z
	 M23.901,151.2l14.397-42.924c0.692-2.063,0.692-4.297,0-6.36L23.901,58.991h173.714l-37.799,52.639H57.161c-5.522,0-10,4.477-10,10
	v29.57L23.901,151.2L23.901,151.2z M67.161,233.84V131.63h139.946c0.056,0.001-0.056,0,0,0l0,0v102.21H67.161z"/>
<g>
</g>
<g>
</g>
<g>
</g>
<g>
</g>
<g>
</g>
<g>
</g>
<g>
</g>
<g>
</g>
<g>
</g>
<g>
</g>
<g>
</g>
<g>
</g>
<g>
</g>
<g>
</g>
<g>
</g>
</svg>
